# MagicaVoxel @ Ephtracy

# group
o 

# material
mtllib Simple Potion.mtl
usemtl palette

# normals
vn -1 0 0
vn 1 0 0
vn 0 0 1
vn 0 0 -1
vn 0 -1 0
vn 0 1 0

# texcoords
vt 0.681641 0.5
vt 0.775391 0.5
vt 0.779297 0.5

# verts
v -0.5 0.3 0.3
v -0.5 0.3 -0.2
v -0.5 0.9 0.3
v -0.5 0.9 -0.2
v -0.4 0.2 0.2
v -0.4 0.2 -0.1
v -0.4 0.3 0.4
v -0.4 0.3 0.3
v -0.4 0.3 0.2
v -0.4 0.3 -0.1
v -0.4 0.3 -0.2
v -0.4 0.3 -0.3
v -0.4 0.9 0.4
v -0.4 0.9 0.3
v -0.4 0.9 0.2
v -0.4 0.9 -0.1
v -0.4 0.9 -0.2
v -0.4 0.9 -0.3
v -0.4 1 0.2
v -0.4 1 -0.1
v -0.4 1.3 0.2
v -0.4 1.3 -0.1
v -0.4 1.4 0.2
v -0.4 1.4 -0.1
v -0.3 0.1 0.2
v -0.3 0.1 -0.1
v -0.3 0.2 0.3
v -0.3 0.2 0.2
v -0.3 0.2 -0.1
v -0.3 0.2 -0.2
v -0.3 0.3 0.5
v -0.3 0.3 0.4
v -0.3 0.3 0.3
v -0.3 0.3 0.2
v -0.3 0.3 -0.1
v -0.3 0.3 -0.2
v -0.3 0.3 -0.3
v -0.3 0.3 -0.4
v -0.3 0.9 0.5
v -0.3 0.9 0.4
v -0.3 0.9 0.3
v -0.3 0.9 0.2
v -0.3 0.9 -0.1
v -0.3 0.9 -0.2
v -0.3 0.9 -0.3
v -0.3 0.9 -0.4
v -0.3 1 0.3
v -0.3 1 0.2
v -0.3 1 -0.1
v -0.3 1 -0.2
v -0.3 1.1 0.2
v -0.3 1.1 -0.1
v -0.3 1.2 0.2
v -0.3 1.2 -0.1
v -0.3 1.3 0.3
v -0.3 1.3 0.2
v -0.3 1.3 -0.1
v -0.3 1.3 -0.2
v -0.3 1.4 0.3
v -0.3 1.4 0.2
v -0.3 1.4 -0.1
v -0.3 1.4 -0.2
v -0.2 0.1 0.3
v -0.2 0.1 0.2
v -0.2 0.1 -0.1
v -0.2 0.1 -0.2
v -0.2 0.2 0.4
v -0.2 0.2 0.3
v -0.2 0.2 0.2
v -0.2 0.2 -0.1
v -0.2 0.2 -0.2
v -0.2 0.2 -0.3
v -0.2 0.3 0.4
v -0.2 0.3 0.3
v -0.2 0.3 -0.2
v -0.2 0.3 -0.3
v -0.2 0.9 0.4
v -0.2 0.9 0.3
v -0.2 0.9 -0.2
v -0.2 0.9 -0.3
v -0.2 1 0.4
v -0.2 1 0.3
v -0.2 1 0.2
v -0.2 1 -0.1
v -0.2 1 -0.2
v -0.2 1 -0.3
v -0.2 1.1 0.3
v -0.2 1.1 0.2
v -0.2 1.1 -0.1
v -0.2 1.1 -0.2
v -0.2 1.2 0.3
v -0.2 1.2 0.2
v -0.2 1.2 -0.1
v -0.2 1.2 -0.2
v -0.2 1.3 0.4
v -0.2 1.3 0.3
v -0.2 1.3 0.2
v -0.2 1.3 -0.1
v -0.2 1.3 -0.2
v -0.2 1.3 -0.3
v -0.2 1.4 0.4
v -0.2 1.4 0.3
v -0.2 1.4 -0.2
v -0.2 1.4 -0.3
v 0 1.1 0.1
v 0 1.1 0
v 0 1.2 0.1
v 0 1.2 0
v 0.1 1.2 0.2
v 0.1 1.2 -0.1
v 0.1 1.3 0.3
v 0.1 1.3 0.2
v 0.1 1.3 -0.1
v 0.1 1.3 -0.2
v 0.1 1.4 0.3
v 0.1 1.4 0.2
v 0.1 1.4 -0.1
v 0.1 1.4 -0.2
v 0.2 0.5 -0.1
v 0.2 0.5 -0.2
v 0.2 0.9 -0.1
v 0.2 0.9 -0.2
v 0.2 1.3 0.2
v 0.2 1.3 -0.1
v 0.2 1.4 0.2
v 0.2 1.4 -0.1
v 0.3 0.5 0.2
v 0.3 0.5 -0.1
v 0.3 0.9 0.2
v 0.3 0.9 -0.1
v -0.3 0.5 -0.1
v -0.3 0.5 -0.2
v -0.3 0.9 -0.1
v -0.3 0.9 -0.2
v -0.3 1.3 0.2
v -0.3 1.3 -0.1
v -0.3 1.4 0.2
v -0.3 1.4 -0.1
v -0.2 1.2 0.2
v -0.2 1.2 -0.1
v -0.2 1.3 0.3
v -0.2 1.3 0.2
v -0.2 1.3 -0.1
v -0.2 1.3 -0.2
v -0.2 1.4 0.3
v -0.2 1.4 0.2
v -0.2 1.4 -0.1
v -0.2 1.4 -0.2
v -0.1 1.1 0.1
v -0.1 1.1 0
v -0.1 1.2 0.1
v -0.1 1.2 0
v 0 0.5 0.2
v 0 0.5 -0.1
v 0 0.9 0.2
v 0 0.9 -0.1
v 0.1 0.1 0.3
v 0.1 0.1 0.2
v 0.1 0.1 -0.1
v 0.1 0.1 -0.2
v 0.1 0.2 0.4
v 0.1 0.2 0.3
v 0.1 0.2 0.2
v 0.1 0.2 -0.1
v 0.1 0.2 -0.2
v 0.1 0.2 -0.3
v 0.1 0.3 0.4
v 0.1 0.3 0.3
v 0.1 0.3 -0.2
v 0.1 0.3 -0.3
v 0.1 0.9 0.4
v 0.1 0.9 0.3
v 0.1 0.9 -0.2
v 0.1 0.9 -0.3
v 0.1 1 0.4
v 0.1 1 0.3
v 0.1 1 0.2
v 0.1 1 -0.1
v 0.1 1 -0.2
v 0.1 1 -0.3
v 0.1 1.1 0.3
v 0.1 1.1 0.2
v 0.1 1.1 -0.1
v 0.1 1.1 -0.2
v 0.1 1.2 0.3
v 0.1 1.2 0.2
v 0.1 1.2 -0.1
v 0.1 1.2 -0.2
v 0.1 1.3 0.4
v 0.1 1.3 0.3
v 0.1 1.3 0.2
v 0.1 1.3 -0.1
v 0.1 1.3 -0.2
v 0.1 1.3 -0.3
v 0.1 1.4 0.4
v 0.1 1.4 0.3
v 0.1 1.4 -0.2
v 0.1 1.4 -0.3
v 0.2 0.1 0.2
v 0.2 0.1 -0.1
v 0.2 0.2 0.3
v 0.2 0.2 0.2
v 0.2 0.2 -0.1
v 0.2 0.2 -0.2
v 0.2 0.3 0.5
v 0.2 0.3 0.4
v 0.2 0.3 0.3
v 0.2 0.3 0.2
v 0.2 0.3 -0.1
v 0.2 0.3 -0.2
v 0.2 0.3 -0.3
v 0.2 0.3 -0.4
v 0.2 0.9 0.5
v 0.2 0.9 0.4
v 0.2 0.9 0.3
v 0.2 0.9 0.2
v 0.2 0.9 -0.1
v 0.2 0.9 -0.2
v 0.2 0.9 -0.3
v 0.2 0.9 -0.4
v 0.2 1 0.3
v 0.2 1 0.2
v 0.2 1 -0.1
v 0.2 1 -0.2
v 0.2 1.1 0.2
v 0.2 1.1 -0.1
v 0.2 1.2 0.2
v 0.2 1.2 -0.1
v 0.2 1.3 0.3
v 0.2 1.3 0.2
v 0.2 1.3 -0.1
v 0.2 1.3 -0.2
v 0.2 1.4 0.3
v 0.2 1.4 0.2
v 0.2 1.4 -0.1
v 0.2 1.4 -0.2
v 0.3 0.2 0.2
v 0.3 0.2 -0.1
v 0.3 0.3 0.4
v 0.3 0.3 0.3
v 0.3 0.3 0.2
v 0.3 0.3 -0.1
v 0.3 0.3 -0.2
v 0.3 0.3 -0.3
v 0.3 0.9 0.4
v 0.3 0.9 0.3
v 0.3 0.9 0.2
v 0.3 0.9 -0.1
v 0.3 0.9 -0.2
v 0.3 0.9 -0.3
v 0.3 1 0.2
v 0.3 1 -0.1
v 0.3 1.3 0.2
v 0.3 1.3 -0.1
v 0.3 1.4 0.2
v 0.3 1.4 -0.1
v 0.4 0.3 0.3
v 0.4 0.3 -0.2
v 0.4 0.9 0.3
v 0.4 0.9 -0.2
v -0.3 0.3 0.5
v -0.3 0.9 0.5
v 0.2 0.3 0.5
v 0.2 0.9 0.5
v -0.4 0.3 0.4
v -0.4 0.9 0.4
v -0.3 0.3 0.4
v -0.3 0.9 0.4
v -0.2 0.2 0.4
v -0.2 0.3 0.4
v -0.2 0.9 0.4
v -0.2 1 0.4
v -0.2 1.3 0.4
v -0.2 1.4 0.4
v 0.1 0.2 0.4
v 0.1 0.3 0.4
v 0.1 0.9 0.4
v 0.1 1 0.4
v 0.1 1.3 0.4
v 0.1 1.4 0.4
v 0.2 0.3 0.4
v 0.2 0.9 0.4
v 0.3 0.3 0.4
v 0.3 0.9 0.4
v -0.5 0.3 0.3
v -0.5 0.9 0.3
v -0.4 0.3 0.3
v -0.4 0.9 0.3
v -0.3 0.2 0.3
v -0.3 0.3 0.3
v -0.3 0.9 0.3
v -0.3 1 0.3
v -0.3 1.3 0.3
v -0.3 1.4 0.3
v -0.2 0.1 0.3
v -0.2 0.2 0.3
v -0.2 0.3 0.3
v -0.2 0.9 0.3
v -0.2 1 0.3
v -0.2 1.1 0.3
v -0.2 1.2 0.3
v -0.2 1.3 0.3
v -0.2 1.4 0.3
v 0.1 0.1 0.3
v 0.1 0.2 0.3
v 0.1 0.3 0.3
v 0.1 0.9 0.3
v 0.1 1 0.3
v 0.1 1.1 0.3
v 0.1 1.2 0.3
v 0.1 1.3 0.3
v 0.1 1.4 0.3
v 0.2 0.2 0.3
v 0.2 0.3 0.3
v 0.2 0.9 0.3
v 0.2 1 0.3
v 0.2 1.3 0.3
v 0.2 1.4 0.3
v 0.3 0.3 0.3
v 0.3 0.9 0.3
v 0.4 0.3 0.3
v 0.4 0.9 0.3
v -0.4 0.2 0.2
v -0.4 0.3 0.2
v -0.4 0.9 0.2
v -0.4 1 0.2
v -0.4 1.3 0.2
v -0.4 1.4 0.2
v -0.3 0.1 0.2
v -0.3 0.2 0.2
v -0.3 0.3 0.2
v -0.3 0.9 0.2
v -0.3 1 0.2
v -0.3 1.1 0.2
v -0.3 1.2 0.2
v -0.3 1.3 0.2
v -0.3 1.4 0.2
v -0.2 0.1 0.2
v -0.2 0.2 0.2
v -0.2 1 0.2
v -0.2 1.1 0.2
v -0.2 1.2 0.2
v -0.2 1.3 0.2
v 0.1 0.1 0.2
v 0.1 0.2 0.2
v 0.1 1 0.2
v 0.1 1.1 0.2
v 0.1 1.2 0.2
v 0.1 1.3 0.2
v 0.2 0.1 0.2
v 0.2 0.2 0.2
v 0.2 0.3 0.2
v 0.2 0.9 0.2
v 0.2 1 0.2
v 0.2 1.1 0.2
v 0.2 1.2 0.2
v 0.2 1.3 0.2
v 0.2 1.4 0.2
v 0.3 0.2 0.2
v 0.3 0.3 0.2
v 0.3 0.9 0.2
v 0.3 1 0.2
v 0.3 1.3 0.2
v 0.3 1.4 0.2
v -0.1 1.1 0
v -0.1 1.2 0
v 0 1.1 0
v 0 1.2 0
v -0.3 1.3 -0.1
v -0.3 1.4 -0.1
v -0.2 1.2 -0.1
v -0.2 1.3 -0.1
v -0.2 1.4 -0.1
v 0.1 1.2 -0.1
v 0.1 1.3 -0.1
v 0.1 1.4 -0.1
v 0.2 0.5 -0.1
v 0.2 0.9 -0.1
v 0.2 1.3 -0.1
v 0.2 1.4 -0.1
v 0.3 0.5 -0.1
v 0.3 0.9 -0.1
v -0.3 0.5 -0.2
v -0.3 0.9 -0.2
v -0.2 0.5 -0.2
v -0.2 0.9 -0.2
v -0.2 1.3 -0.2
v -0.2 1.4 -0.2
v 0.1 0.5 -0.2
v 0.1 0.9 -0.2
v 0.1 1.3 -0.2
v 0.1 1.4 -0.2
v 0.2 0.5 -0.2
v 0.2 0.9 -0.2
v -0.2 1.3 0.3
v -0.2 1.4 0.3
v 0.1 1.3 0.3
v 0.1 1.4 0.3
v -0.3 1.3 0.2
v -0.3 1.4 0.2
v -0.2 1.2 0.2
v -0.2 1.3 0.2
v -0.2 1.4 0.2
v 0 0.5 0.2
v 0 0.9 0.2
v 0.1 1.2 0.2
v 0.1 1.3 0.2
v 0.1 1.4 0.2
v 0.2 0.5 0.2
v 0.2 0.9 0.2
v 0.2 1.3 0.2
v 0.2 1.4 0.2
v 0.3 0.5 0.2
v 0.3 0.9 0.2
v -0.1 1.1 0.1
v -0.1 1.2 0.1
v 0 1.1 0.1
v 0 1.2 0.1
v -0.4 0.2 -0.1
v -0.4 0.3 -0.1
v -0.4 0.9 -0.1
v -0.4 1 -0.1
v -0.4 1.3 -0.1
v -0.4 1.4 -0.1
v -0.3 0.1 -0.1
v -0.3 0.2 -0.1
v -0.3 0.3 -0.1
v -0.3 0.5 -0.1
v -0.3 0.9 -0.1
v -0.3 1 -0.1
v -0.3 1.1 -0.1
v -0.3 1.2 -0.1
v -0.3 1.3 -0.1
v -0.3 1.4 -0.1
v -0.2 0.1 -0.1
v -0.2 0.2 -0.1
v -0.2 1 -0.1
v -0.2 1.1 -0.1
v -0.2 1.2 -0.1
v -0.2 1.3 -0.1
v 0 0.5 -0.1
v 0 0.9 -0.1
v 0.1 0.1 -0.1
v 0.1 0.2 -0.1
v 0.1 1 -0.1
v 0.1 1.1 -0.1
v 0.1 1.2 -0.1
v 0.1 1.3 -0.1
v 0.2 0.1 -0.1
v 0.2 0.2 -0.1
v 0.2 0.3 -0.1
v 0.2 0.9 -0.1
v 0.2 1 -0.1
v 0.2 1.1 -0.1
v 0.2 1.2 -0.1
v 0.2 1.3 -0.1
v 0.2 1.4 -0.1
v 0.3 0.2 -0.1
v 0.3 0.3 -0.1
v 0.3 0.9 -0.1
v 0.3 1 -0.1
v 0.3 1.3 -0.1
v 0.3 1.4 -0.1
v -0.5 0.3 -0.2
v -0.5 0.9 -0.2
v -0.4 0.3 -0.2
v -0.4 0.9 -0.2
v -0.3 0.2 -0.2
v -0.3 0.3 -0.2
v -0.3 0.9 -0.2
v -0.3 1 -0.2
v -0.3 1.3 -0.2
v -0.3 1.4 -0.2
v -0.2 0.1 -0.2
v -0.2 0.2 -0.2
v -0.2 0.3 -0.2
v -0.2 0.9 -0.2
v -0.2 1 -0.2
v -0.2 1.1 -0.2
v -0.2 1.2 -0.2
v -0.2 1.3 -0.2
v -0.2 1.4 -0.2
v 0.1 0.1 -0.2
v 0.1 0.2 -0.2
v 0.1 0.3 -0.2
v 0.1 0.9 -0.2
v 0.1 1 -0.2
v 0.1 1.1 -0.2
v 0.1 1.2 -0.2
v 0.1 1.3 -0.2
v 0.1 1.4 -0.2
v 0.2 0.2 -0.2
v 0.2 0.3 -0.2
v 0.2 0.9 -0.2
v 0.2 1 -0.2
v 0.2 1.3 -0.2
v 0.2 1.4 -0.2
v 0.3 0.3 -0.2
v 0.3 0.9 -0.2
v 0.4 0.3 -0.2
v 0.4 0.9 -0.2
v -0.4 0.3 -0.3
v -0.4 0.9 -0.3
v -0.3 0.3 -0.3
v -0.3 0.9 -0.3
v -0.2 0.2 -0.3
v -0.2 0.3 -0.3
v -0.2 0.9 -0.3
v -0.2 1 -0.3
v -0.2 1.3 -0.3
v -0.2 1.4 -0.3
v 0.1 0.2 -0.3
v 0.1 0.3 -0.3
v 0.1 0.9 -0.3
v 0.1 1 -0.3
v 0.1 1.3 -0.3
v 0.1 1.4 -0.3
v 0.2 0.3 -0.3
v 0.2 0.9 -0.3
v 0.3 0.3 -0.3
v 0.3 0.9 -0.3
v -0.3 0.3 -0.4
v -0.3 0.9 -0.4
v 0.2 0.3 -0.4
v 0.2 0.9 -0.4
v -0.2 0.1 0.3
v 0.1 0.1 0.3
v -0.3 0.1 0.2
v -0.2 0.1 0.2
v 0.1 0.1 0.2
v 0.2 0.1 0.2
v -0.3 0.1 -0.1
v -0.2 0.1 -0.1
v 0.1 0.1 -0.1
v 0.2 0.1 -0.1
v -0.2 0.1 -0.2
v 0.1 0.1 -0.2
v -0.2 0.2 0.4
v 0.1 0.2 0.4
v -0.3 0.2 0.3
v -0.2 0.2 0.3
v 0.1 0.2 0.3
v 0.2 0.2 0.3
v -0.4 0.2 0.2
v -0.3 0.2 0.2
v -0.2 0.2 0.2
v 0.1 0.2 0.2
v 0.2 0.2 0.2
v 0.3 0.2 0.2
v -0.4 0.2 -0.1
v -0.3 0.2 -0.1
v -0.2 0.2 -0.1
v 0.1 0.2 -0.1
v 0.2 0.2 -0.1
v 0.3 0.2 -0.1
v -0.3 0.2 -0.2
v -0.2 0.2 -0.2
v 0.1 0.2 -0.2
v 0.2 0.2 -0.2
v -0.2 0.2 -0.3
v 0.1 0.2 -0.3
v -0.3 0.3 0.5
v 0.2 0.3 0.5
v -0.4 0.3 0.4
v -0.3 0.3 0.4
v -0.2 0.3 0.4
v 0.1 0.3 0.4
v 0.2 0.3 0.4
v 0.3 0.3 0.4
v -0.5 0.3 0.3
v -0.4 0.3 0.3
v -0.3 0.3 0.3
v -0.2 0.3 0.3
v 0.1 0.3 0.3
v 0.2 0.3 0.3
v 0.3 0.3 0.3
v 0.4 0.3 0.3
v -0.4 0.3 0.2
v -0.3 0.3 0.2
v 0.2 0.3 0.2
v 0.3 0.3 0.2
v -0.4 0.3 -0.1
v -0.3 0.3 -0.1
v 0.2 0.3 -0.1
v 0.3 0.3 -0.1
v -0.5 0.3 -0.2
v -0.4 0.3 -0.2
v -0.3 0.3 -0.2
v -0.2 0.3 -0.2
v 0.1 0.3 -0.2
v 0.2 0.3 -0.2
v 0.3 0.3 -0.2
v 0.4 0.3 -0.2
v -0.4 0.3 -0.3
v -0.3 0.3 -0.3
v -0.2 0.3 -0.3
v 0.1 0.3 -0.3
v 0.2 0.3 -0.3
v 0.3 0.3 -0.3
v -0.3 0.3 -0.4
v 0.2 0.3 -0.4
v 0 0.9 0.2
v 0.2 0.9 0.2
v 0.3 0.9 0.2
v -0.3 0.9 -0.1
v 0 0.9 -0.1
v 0.2 0.9 -0.1
v 0.3 0.9 -0.1
v -0.3 0.9 -0.2
v -0.2 0.9 -0.2
v 0.1 0.9 -0.2
v 0.2 0.9 -0.2
v -0.2 1.2 0.3
v 0.1 1.2 0.3
v -0.3 1.2 0.2
v -0.2 1.2 0.2
v 0.1 1.2 0.2
v 0.2 1.2 0.2
v -0.3 1.2 -0.1
v -0.2 1.2 -0.1
v 0.1 1.2 -0.1
v 0.2 1.2 -0.1
v -0.2 1.2 -0.2
v 0.1 1.2 -0.2
v -0.2 1.3 0.4
v 0.1 1.3 0.4
v -0.3 1.3 0.3
v -0.2 1.3 0.3
v 0.1 1.3 0.3
v 0.2 1.3 0.3
v -0.4 1.3 0.2
v -0.3 1.3 0.2
v -0.2 1.3 0.2
v 0.1 1.3 0.2
v 0.2 1.3 0.2
v 0.3 1.3 0.2
v -0.4 1.3 -0.1
v -0.3 1.3 -0.1
v -0.2 1.3 -0.1
v 0.1 1.3 -0.1
v 0.2 1.3 -0.1
v 0.3 1.3 -0.1
v -0.3 1.3 -0.2
v -0.2 1.3 -0.2
v 0.1 1.3 -0.2
v 0.2 1.3 -0.2
v -0.2 1.3 -0.3
v 0.1 1.3 -0.3
v 0 0.5 0.2
v 0.2 0.5 0.2
v 0.3 0.5 0.2
v -0.3 0.5 -0.1
v 0 0.5 -0.1
v 0.2 0.5 -0.1
v 0.3 0.5 -0.1
v -0.3 0.5 -0.2
v -0.2 0.5 -0.2
v 0.1 0.5 -0.2
v 0.2 0.5 -0.2
v -0.3 0.9 0.5
v 0.2 0.9 0.5
v -0.4 0.9 0.4
v -0.3 0.9 0.4
v -0.2 0.9 0.4
v 0.1 0.9 0.4
v 0.2 0.9 0.4
v 0.3 0.9 0.4
v -0.5 0.9 0.3
v -0.4 0.9 0.3
v -0.3 0.9 0.3
v -0.2 0.9 0.3
v 0.1 0.9 0.3
v 0.2 0.9 0.3
v 0.3 0.9 0.3
v 0.4 0.9 0.3
v -0.4 0.9 0.2
v -0.3 0.9 0.2
v 0.2 0.9 0.2
v 0.3 0.9 0.2
v -0.4 0.9 -0.1
v -0.3 0.9 -0.1
v 0.2 0.9 -0.1
v 0.3 0.9 -0.1
v -0.5 0.9 -0.2
v -0.4 0.9 -0.2
v -0.3 0.9 -0.2
v -0.2 0.9 -0.2
v 0.1 0.9 -0.2
v 0.2 0.9 -0.2
v 0.3 0.9 -0.2
v 0.4 0.9 -0.2
v -0.4 0.9 -0.3
v -0.3 0.9 -0.3
v -0.2 0.9 -0.3
v 0.1 0.9 -0.3
v 0.2 0.9 -0.3
v 0.3 0.9 -0.3
v -0.3 0.9 -0.4
v 0.2 0.9 -0.4
v -0.2 1 0.4
v 0.1 1 0.4
v -0.3 1 0.3
v -0.2 1 0.3
v 0.1 1 0.3
v 0.2 1 0.3
v -0.4 1 0.2
v -0.3 1 0.2
v -0.2 1 0.2
v 0.1 1 0.2
v 0.2 1 0.2
v 0.3 1 0.2
v -0.4 1 -0.1
v -0.3 1 -0.1
v -0.2 1 -0.1
v 0.1 1 -0.1
v 0.2 1 -0.1
v 0.3 1 -0.1
v -0.3 1 -0.2
v -0.2 1 -0.2
v 0.1 1 -0.2
v 0.2 1 -0.2
v -0.2 1 -0.3
v 0.1 1 -0.3
v -0.2 1.1 0.3
v 0.1 1.1 0.3
v -0.3 1.1 0.2
v -0.2 1.1 0.2
v 0.1 1.1 0.2
v 0.2 1.1 0.2
v -0.1 1.1 0.1
v 0 1.1 0.1
v -0.1 1.1 0
v 0 1.1 0
v -0.3 1.1 -0.1
v -0.2 1.1 -0.1
v 0.1 1.1 -0.1
v 0.2 1.1 -0.1
v -0.2 1.1 -0.2
v 0.1 1.1 -0.2
v -0.2 1.2 0.2
v 0.1 1.2 0.2
v -0.1 1.2 0.1
v 0 1.2 0.1
v -0.1 1.2 0
v 0 1.2 0
v -0.2 1.2 -0.1
v 0.1 1.2 -0.1
v -0.2 1.3 0.3
v 0.1 1.3 0.3
v -0.3 1.3 0.2
v -0.2 1.3 0.2
v 0.1 1.3 0.2
v 0.2 1.3 0.2
v -0.3 1.3 -0.1
v -0.2 1.3 -0.1
v 0.1 1.3 -0.1
v 0.2 1.3 -0.1
v -0.2 1.3 -0.2
v 0.1 1.3 -0.2
v -0.2 1.4 0.4
v 0.1 1.4 0.4
v -0.3 1.4 0.3
v -0.2 1.4 0.3
v 0.1 1.4 0.3
v 0.2 1.4 0.3
v -0.4 1.4 0.2
v -0.3 1.4 0.2
v -0.2 1.4 0.2
v 0.1 1.4 0.2
v 0.2 1.4 0.2
v 0.3 1.4 0.2
v -0.4 1.4 -0.1
v -0.3 1.4 -0.1
v -0.2 1.4 -0.1
v 0.1 1.4 -0.1
v 0.2 1.4 -0.1
v 0.3 1.4 -0.1
v -0.3 1.4 -0.2
v -0.2 1.4 -0.2
v 0.1 1.4 -0.2
v 0.2 1.4 -0.2
v -0.2 1.4 -0.3
v 0.1 1.4 -0.3

# faces
f 3/2/1 2/2/1 1/2/1
f 4/2/1 2/2/1 3/2/1
f 9/2/1 6/2/1 5/2/1
f 10/2/1 6/2/1 9/2/1
f 13/2/1 8/2/1 7/2/1
f 14/2/1 8/2/1 13/2/1
f 17/2/1 12/2/1 11/2/1
f 18/2/1 12/2/1 17/2/1
f 19/2/1 16/2/1 15/2/1
f 20/2/1 16/2/1 19/2/1
f 23/3/1 22/3/1 21/3/1
f 24/3/1 22/3/1 23/3/1
f 28/2/1 26/2/1 25/2/1
f 29/2/1 26/2/1 28/2/1
f 33/2/1 28/2/1 27/2/1
f 34/2/1 28/2/1 33/2/1
f 35/2/1 30/2/1 29/2/1
f 36/2/1 30/2/1 35/2/1
f 39/2/1 32/2/1 31/2/1
f 40/2/1 32/2/1 39/2/1
f 45/2/1 38/2/1 37/2/1
f 46/2/1 38/2/1 45/2/1
f 47/2/1 42/2/1 41/2/1
f 48/2/1 42/2/1 47/2/1
f 49/2/1 44/2/1 43/2/1
f 50/2/1 44/2/1 49/2/1
f 51/2/1 49/2/1 48/2/1
f 52/2/1 49/2/1 51/2/1
f 56/3/1 54/3/1 53/3/1
f 57/3/1 54/3/1 56/3/1
f 59/3/1 56/3/1 55/3/1
f 60/3/1 56/3/1 59/3/1
f 61/3/1 58/3/1 57/3/1
f 62/3/1 58/3/1 61/3/1
f 68/2/1 64/2/1 63/2/1
f 69/2/1 64/2/1 68/2/1
f 70/2/1 66/2/1 65/2/1
f 71/2/1 66/2/1 70/2/1
f 73/2/1 68/2/1 67/2/1
f 74/2/1 68/2/1 73/2/1
f 75/2/1 72/2/1 71/2/1
f 76/2/1 72/2/1 75/2/1
f 81/2/1 78/2/1 77/2/1
f 82/2/1 78/2/1 81/2/1
f 85/2/1 80/2/1 79/2/1
f 86/2/1 80/2/1 85/2/1
f 87/2/1 83/2/1 82/2/1
f 88/2/1 83/2/1 87/2/1
f 89/2/1 85/2/1 84/2/1
f 90/2/1 85/2/1 89/2/1
f 92/3/1 89/3/1 88/3/1
f 93/3/1 89/3/1 92/3/1
f 96/3/1 92/3/1 91/3/1
f 97/3/1 92/3/1 96/3/1
f 98/3/1 94/3/1 93/3/1
f 99/3/1 94/3/1 98/3/1
f 101/3/1 96/3/1 95/3/1
f 102/3/1 96/3/1 101/3/1
f 103/3/1 100/3/1 99/3/1
f 104/3/1 100/3/1 103/3/1
f 107/3/1 106/3/1 105/3/1
f 108/3/1 106/3/1 107/3/1
f 112/3/1 110/3/1 109/3/1
f 113/3/1 110/3/1 112/3/1
f 115/3/1 112/3/1 111/3/1
f 116/3/1 112/3/1 115/3/1
f 117/3/1 114/3/1 113/3/1
f 118/3/1 114/3/1 117/3/1
f 121/2/1 120/2/1 119/2/1
f 122/2/1 120/2/1 121/2/1
f 125/3/1 124/3/1 123/3/1
f 126/3/1 124/3/1 125/3/1
f 129/2/1 128/2/1 127/2/1
f 130/2/1 128/2/1 129/2/1
f 131/2/2 132/2/2 133/2/2
f 133/2/2 132/2/2 134/2/2
f 135/3/2 136/3/2 137/3/2
f 137/3/2 136/3/2 138/3/2
f 139/3/2 140/3/2 142/3/2
f 142/3/2 140/3/2 143/3/2
f 141/3/2 142/3/2 145/3/2
f 145/3/2 142/3/2 146/3/2
f 143/3/2 144/3/2 147/3/2
f 147/3/2 144/3/2 148/3/2
f 149/3/2 150/3/2 151/3/2
f 151/3/2 150/3/2 152/3/2
f 153/1/2 154/1/2 155/1/2
f 155/1/2 154/1/2 156/1/2
f 157/2/2 158/2/2 162/2/2
f 162/2/2 158/2/2 163/2/2
f 159/2/2 160/2/2 164/2/2
f 164/2/2 160/2/2 165/2/2
f 161/2/2 162/2/2 167/2/2
f 167/2/2 162/2/2 168/2/2
f 165/2/2 166/2/2 169/2/2
f 169/2/2 166/2/2 170/2/2
f 171/2/2 172/2/2 175/2/2
f 175/2/2 172/2/2 176/2/2
f 173/2/2 174/2/2 179/2/2
f 179/2/2 174/2/2 180/2/2
f 176/2/2 177/2/2 181/2/2
f 181/2/2 177/2/2 182/2/2
f 178/2/2 179/2/2 183/2/2
f 183/2/2 179/2/2 184/2/2
f 182/3/2 183/3/2 186/3/2
f 186/3/2 183/3/2 187/3/2
f 185/3/2 186/3/2 190/3/2
f 190/3/2 186/3/2 191/3/2
f 187/3/2 188/3/2 192/3/2
f 192/3/2 188/3/2 193/3/2
f 189/3/2 190/3/2 195/3/2
f 195/3/2 190/3/2 196/3/2
f 193/3/2 194/3/2 197/3/2
f 197/3/2 194/3/2 198/3/2
f 199/2/2 200/2/2 202/2/2
f 202/2/2 200/2/2 203/2/2
f 201/2/2 202/2/2 207/2/2
f 207/2/2 202/2/2 208/2/2
f 203/2/2 204/2/2 209/2/2
f 209/2/2 204/2/2 210/2/2
f 205/2/2 206/2/2 213/2/2
f 213/2/2 206/2/2 214/2/2
f 211/2/2 212/2/2 219/2/2
f 219/2/2 212/2/2 220/2/2
f 215/2/2 216/2/2 221/2/2
f 221/2/2 216/2/2 222/2/2
f 217/2/2 218/2/2 223/2/2
f 223/2/2 218/2/2 224/2/2
f 222/2/2 223/2/2 225/2/2
f 225/2/2 223/2/2 226/2/2
f 227/3/2 228/3/2 230/3/2
f 230/3/2 228/3/2 231/3/2
f 229/3/2 230/3/2 233/3/2
f 233/3/2 230/3/2 234/3/2
f 231/3/2 232/3/2 235/3/2
f 235/3/2 232/3/2 236/3/2
f 237/2/2 238/2/2 241/2/2
f 241/2/2 238/2/2 242/2/2
f 239/2/2 240/2/2 245/2/2
f 245/2/2 240/2/2 246/2/2
f 243/2/2 244/2/2 249/2/2
f 249/2/2 244/2/2 250/2/2
f 247/2/2 248/2/2 251/2/2
f 251/2/2 248/2/2 252/2/2
f 253/3/2 254/3/2 255/3/2
f 255/3/2 254/3/2 256/3/2
f 257/2/2 258/2/2 259/2/2
f 259/2/2 258/2/2 260/2/2
f 263/2/3 262/2/3 261/2/3
f 264/2/3 262/2/3 263/2/3
f 267/2/3 266/2/3 265/2/3
f 268/2/3 266/2/3 267/2/3
f 275/2/3 270/2/3 269/2/3
f 276/2/3 270/2/3 275/2/3
f 277/2/3 272/2/3 271/2/3
f 278/2/3 272/2/3 277/2/3
f 279/3/3 274/3/3 273/3/3
f 280/3/3 274/3/3 279/3/3
f 283/2/3 282/2/3 281/2/3
f 284/2/3 282/2/3 283/2/3
f 287/2/3 286/2/3 285/2/3
f 288/2/3 286/2/3 287/2/3
f 296/2/3 290/2/3 289/2/3
f 297/2/3 290/2/3 296/2/3
f 298/2/3 292/2/3 291/2/3
f 299/2/3 292/2/3 298/2/3
f 302/3/3 294/3/3 293/3/3
f 303/3/3 294/3/3 302/3/3
f 304/2/3 296/2/3 295/2/3
f 305/2/3 296/2/3 304/2/3
f 308/2/3 300/2/3 299/2/3
f 309/2/3 300/2/3 308/2/3
f 310/3/3 302/3/3 301/3/3
f 311/3/3 302/3/3 310/3/3
f 313/2/3 306/2/3 305/2/3
f 314/2/3 306/2/3 313/2/3
f 315/2/3 308/2/3 307/2/3
f 316/2/3 308/2/3 315/2/3
f 317/3/3 312/3/3 311/3/3
f 318/3/3 312/3/3 317/3/3
f 321/2/3 320/2/3 319/2/3
f 322/2/3 320/2/3 321/2/3
f 330/2/3 324/2/3 323/2/3
f 331/2/3 324/2/3 330/2/3
f 332/2/3 326/2/3 325/2/3
f 333/2/3 326/2/3 332/2/3
f 336/3/3 328/3/3 327/3/3
f 337/3/3 328/3/3 336/3/3
f 338/2/3 330/2/3 329/2/3
f 339/2/3 330/2/3 338/2/3
f 340/2/3 334/2/3 333/2/3
f 341/2/3 334/2/3 340/2/3
f 342/3/3 336/3/3 335/3/3
f 343/3/3 336/3/3 342/3/3
f 347/3/3 342/3/3 341/3/3
f 348/3/3 342/3/3 347/3/3
f 350/2/3 345/2/3 344/2/3
f 351/2/3 345/2/3 350/2/3
f 354/2/3 347/2/3 346/2/3
f 355/2/3 347/2/3 354/2/3
f 356/3/3 349/3/3 348/3/3
f 357/3/3 349/3/3 356/3/3
f 359/2/3 352/2/3 351/2/3
f 360/2/3 352/2/3 359/2/3
f 361/2/3 354/2/3 353/2/3
f 362/2/3 354/2/3 361/2/3
f 363/3/3 358/3/3 357/3/3
f 364/3/3 358/3/3 363/3/3
f 367/3/3 366/3/3 365/3/3
f 368/3/3 366/3/3 367/3/3
f 372/3/3 370/3/3 369/3/3
f 373/3/3 370/3/3 372/3/3
f 374/3/3 372/3/3 371/3/3
f 375/3/3 372/3/3 374/3/3
f 379/3/3 376/3/3 375/3/3
f 380/3/3 376/3/3 379/3/3
f 381/2/3 378/2/3 377/2/3
f 382/2/3 378/2/3 381/2/3
f 385/2/3 384/2/3 383/2/3
f 386/2/3 384/2/3 385/2/3
f 389/1/3 386/1/3 385/1/3
f 390/1/3 386/1/3 389/1/3
f 391/3/3 388/3/3 387/3/3
f 392/3/3 388/3/3 391/3/3
f 393/2/3 390/2/3 389/2/3
f 394/2/3 390/2/3 393/2/3
f 395/3/4 396/3/4 397/3/4
f 397/3/4 396/3/4 398/3/4
f 399/3/4 400/3/4 402/3/4
f 402/3/4 400/3/4 403/3/4
f 401/3/4 402/3/4 406/3/4
f 406/3/4 402/3/4 407/3/4
f 404/1/4 405/1/4 409/1/4
f 409/1/4 405/1/4 410/1/4
f 407/3/4 408/3/4 411/3/4
f 411/3/4 408/3/4 412/3/4
f 409/2/4 410/2/4 413/2/4
f 413/2/4 410/2/4 414/2/4
f 415/3/4 416/3/4 417/3/4
f 417/3/4 416/3/4 418/3/4
f 419/2/4 420/2/4 426/2/4
f 426/2/4 420/2/4 427/2/4
f 421/2/4 422/2/4 429/2/4
f 429/2/4 422/2/4 430/2/4
f 423/3/4 424/3/4 433/3/4
f 433/3/4 424/3/4 434/3/4
f 425/2/4 426/2/4 435/2/4
f 435/2/4 426/2/4 436/2/4
f 430/2/4 431/2/4 437/2/4
f 437/2/4 431/2/4 438/2/4
f 432/3/4 433/3/4 439/3/4
f 439/3/4 433/3/4 440/3/4
f 428/1/4 429/1/4 441/1/4
f 441/1/4 429/1/4 442/1/4
f 438/3/4 439/3/4 446/3/4
f 446/3/4 439/3/4 447/3/4
f 443/2/4 444/2/4 449/2/4
f 449/2/4 444/2/4 450/2/4
f 445/2/4 446/2/4 453/2/4
f 453/2/4 446/2/4 454/2/4
f 447/3/4 448/3/4 455/3/4
f 455/3/4 448/3/4 456/3/4
f 450/2/4 451/2/4 458/2/4
f 458/2/4 451/2/4 459/2/4
f 452/2/4 453/2/4 460/2/4
f 460/2/4 453/2/4 461/2/4
f 456/3/4 457/3/4 462/3/4
f 462/3/4 457/3/4 463/3/4
f 464/2/4 465/2/4 466/2/4
f 466/2/4 465/2/4 467/2/4
f 468/2/4 469/2/4 475/2/4
f 475/2/4 469/2/4 476/2/4
f 470/2/4 471/2/4 477/2/4
f 477/2/4 471/2/4 478/2/4
f 472/3/4 473/3/4 481/3/4
f 481/3/4 473/3/4 482/3/4
f 474/2/4 475/2/4 483/2/4
f 483/2/4 475/2/4 484/2/4
f 478/2/4 479/2/4 487/2/4
f 487/2/4 479/2/4 488/2/4
f 480/3/4 481/3/4 489/3/4
f 489/3/4 481/3/4 490/3/4
f 484/2/4 485/2/4 492/2/4
f 492/2/4 485/2/4 493/2/4
f 486/2/4 487/2/4 494/2/4
f 494/2/4 487/2/4 495/2/4
f 490/3/4 491/3/4 496/3/4
f 496/3/4 491/3/4 497/3/4
f 498/2/4 499/2/4 500/2/4
f 500/2/4 499/2/4 501/2/4
f 502/2/4 503/2/4 504/2/4
f 504/2/4 503/2/4 505/2/4
f 506/2/4 507/2/4 512/2/4
f 512/2/4 507/2/4 513/2/4
f 508/2/4 509/2/4 514/2/4
f 514/2/4 509/2/4 515/2/4
f 510/3/4 511/3/4 516/3/4
f 516/3/4 511/3/4 517/3/4
f 518/2/4 519/2/4 520/2/4
f 520/2/4 519/2/4 521/2/4
f 522/2/4 523/2/4 524/2/4
f 524/2/4 523/2/4 525/2/4
f 529/2/5 527/2/5 526/2/5
f 530/2/5 527/2/5 529/2/5
f 532/2/5 529/2/5 528/2/5
f 532/2/5 531/2/5 530/2/5
f 532/2/5 530/2/5 529/2/5
f 533/2/5 531/2/5 532/2/5
f 534/2/5 531/2/5 533/2/5
f 535/2/5 531/2/5 534/2/5
f 536/2/5 534/2/5 533/2/5
f 537/2/5 534/2/5 536/2/5
f 541/2/5 539/2/5 538/2/5
f 542/2/5 539/2/5 541/2/5
f 545/2/5 541/2/5 540/2/5
f 546/2/5 541/2/5 545/2/5
f 547/2/5 543/2/5 542/2/5
f 548/2/5 543/2/5 547/2/5
f 550/2/5 545/2/5 544/2/5
f 551/2/5 545/2/5 550/2/5
f 554/2/5 549/2/5 548/2/5
f 555/2/5 549/2/5 554/2/5
f 556/2/5 552/2/5 551/2/5
f 557/2/5 552/2/5 556/2/5
f 558/2/5 554/2/5 553/2/5
f 559/2/5 554/2/5 558/2/5
f 560/2/5 558/2/5 557/2/5
f 561/2/5 558/2/5 560/2/5
f 565/2/5 563/2/5 562/2/5
f 566/2/5 563/2/5 565/2/5
f 567/2/5 563/2/5 566/2/5
f 568/2/5 563/2/5 567/2/5
f 571/2/5 565/2/5 564/2/5
f 571/2/5 566/2/5 565/2/5
f 572/2/5 566/2/5 571/2/5
f 573/2/5 566/2/5 572/2/5
f 574/2/5 568/2/5 567/2/5
f 574/2/5 569/2/5 568/2/5
f 575/2/5 569/2/5 574/2/5
f 576/2/5 569/2/5 575/2/5
f 578/2/5 572/2/5 571/2/5
f 578/2/5 571/2/5 570/2/5
f 579/2/5 572/2/5 578/2/5
f 580/2/5 577/2/5 576/2/5
f 580/2/5 576/2/5 575/2/5
f 581/2/5 577/2/5 580/2/5
f 582/2/5 578/2/5 570/2/5
f 585/2/5 577/2/5 581/2/5
f 586/2/5 583/2/5 582/2/5
f 586/2/5 582/2/5 570/2/5
f 587/2/5 583/2/5 586/2/5
f 588/2/5 583/2/5 587/2/5
f 591/2/5 585/2/5 584/2/5
f 592/2/5 577/2/5 585/2/5
f 592/2/5 585/2/5 591/2/5
f 593/2/5 577/2/5 592/2/5
f 594/2/5 589/2/5 588/2/5
f 594/2/5 588/2/5 587/2/5
f 595/2/5 589/2/5 594/2/5
f 596/2/5 589/2/5 595/2/5
f 597/2/5 591/2/5 590/2/5
f 597/2/5 592/2/5 591/2/5
f 598/2/5 592/2/5 597/2/5
f 599/2/5 592/2/5 598/2/5
f 600/2/5 596/2/5 595/2/5
f 600/2/5 598/2/5 597/2/5
f 600/2/5 597/2/5 596/2/5
f 601/2/5 598/2/5 600/2/5
f 606/2/5 603/2/5 602/2/5
f 606/2/5 604/2/5 603/2/5
f 607/2/5 604/2/5 606/2/5
f 608/2/5 604/2/5 607/2/5
f 609/2/5 606/2/5 605/2/5
f 609/2/5 607/2/5 606/2/5
f 610/2/5 607/2/5 609/2/5
f 611/2/5 607/2/5 610/2/5
f 612/2/5 607/2/5 611/2/5
f 616/3/5 614/3/5 613/3/5
f 617/3/5 614/3/5 616/3/5
f 619/3/5 616/3/5 615/3/5
f 620/3/5 616/3/5 619/3/5
f 621/3/5 618/3/5 617/3/5
f 622/3/5 618/3/5 621/3/5
f 623/3/5 621/3/5 620/3/5
f 624/3/5 621/3/5 623/3/5
f 628/3/5 626/3/5 625/3/5
f 629/3/5 626/3/5 628/3/5
f 632/3/5 628/3/5 627/3/5
f 633/3/5 628/3/5 632/3/5
f 634/3/5 630/3/5 629/3/5
f 635/3/5 630/3/5 634/3/5
f 637/3/5 632/3/5 631/3/5
f 638/3/5 632/3/5 637/3/5
f 641/3/5 636/3/5 635/3/5
f 642/3/5 636/3/5 641/3/5
f 643/3/5 639/3/5 638/3/5
f 644/3/5 639/3/5 643/3/5
f 645/3/5 641/3/5 640/3/5
f 646/3/5 641/3/5 645/3/5
f 647/3/5 645/3/5 644/3/5
f 648/3/5 645/3/5 647/3/5
f 649/1/6 650/1/6 653/1/6
f 650/1/6 651/1/6 653/1/6
f 653/1/6 651/1/6 654/1/6
f 654/1/6 651/1/6 655/1/6
f 652/1/6 653/1/6 656/1/6
f 653/1/6 654/1/6 656/1/6
f 656/1/6 654/1/6 657/1/6
f 657/1/6 654/1/6 658/1/6
f 658/1/6 654/1/6 659/1/6
f 660/2/6 661/2/6 663/2/6
f 663/2/6 661/2/6 664/2/6
f 664/2/6 661/2/6 665/2/6
f 665/2/6 661/2/6 666/2/6
f 662/2/6 663/2/6 669/2/6
f 663/2/6 664/2/6 669/2/6
f 669/2/6 664/2/6 670/2/6
f 670/2/6 664/2/6 671/2/6
f 665/2/6 666/2/6 672/2/6
f 666/2/6 667/2/6 672/2/6
f 672/2/6 667/2/6 673/2/6
f 673/2/6 667/2/6 674/2/6
f 669/2/6 670/2/6 676/2/6
f 668/2/6 669/2/6 676/2/6
f 676/2/6 670/2/6 677/2/6
f 674/2/6 675/2/6 678/2/6
f 673/2/6 674/2/6 678/2/6
f 678/2/6 675/2/6 679/2/6
f 668/2/6 676/2/6 680/2/6
f 679/2/6 675/2/6 683/2/6
f 680/2/6 681/2/6 684/2/6
f 668/2/6 680/2/6 684/2/6
f 684/2/6 681/2/6 685/2/6
f 685/2/6 681/2/6 686/2/6
f 682/2/6 683/2/6 689/2/6
f 683/2/6 675/2/6 690/2/6
f 689/2/6 683/2/6 690/2/6
f 690/2/6 675/2/6 691/2/6
f 686/2/6 687/2/6 692/2/6
f 685/2/6 686/2/6 692/2/6
f 692/2/6 687/2/6 693/2/6
f 693/2/6 687/2/6 694/2/6
f 688/2/6 689/2/6 695/2/6
f 689/2/6 690/2/6 695/2/6
f 695/2/6 690/2/6 696/2/6
f 696/2/6 690/2/6 697/2/6
f 693/2/6 694/2/6 698/2/6
f 695/2/6 696/2/6 698/2/6
f 694/2/6 695/2/6 698/2/6
f 698/2/6 696/2/6 699/2/6
f 700/2/6 701/2/6 703/2/6
f 703/2/6 701/2/6 704/2/6
f 702/2/6 703/2/6 707/2/6
f 707/2/6 703/2/6 708/2/6
f 704/2/6 705/2/6 709/2/6
f 709/2/6 705/2/6 710/2/6
f 706/2/6 707/2/6 712/2/6
f 712/2/6 707/2/6 713/2/6
f 710/2/6 711/2/6 716/2/6
f 716/2/6 711/2/6 717/2/6
f 713/2/6 714/2/6 718/2/6
f 718/2/6 714/2/6 719/2/6
f 715/2/6 716/2/6 720/2/6
f 720/2/6 716/2/6 721/2/6
f 719/2/6 720/2/6 722/2/6
f 722/2/6 720/2/6 723/2/6
f 724/2/6 725/2/6 727/2/6
f 727/2/6 725/2/6 728/2/6
f 730/3/6 731/3/6 732/3/6
f 732/3/6 731/3/6 733/3/6
f 726/2/6 727/2/6 734/2/6
f 734/2/6 727/2/6 735/2/6
f 728/2/6 729/2/6 736/2/6
f 736/2/6 729/2/6 737/2/6
f 735/2/6 736/2/6 738/2/6
f 738/2/6 736/2/6 739/2/6
f 740/3/6 741/3/6 742/3/6
f 742/3/6 741/3/6 743/3/6
f 740/3/6 742/3/6 744/3/6
f 743/3/6 741/3/6 745/3/6
f 740/3/6 744/3/6 746/3/6
f 744/3/6 745/3/6 746/3/6
f 745/3/6 741/3/6 747/3/6
f 746/3/6 745/3/6 747/3/6
f 748/3/6 749/3/6 751/3/6
f 751/3/6 749/3/6 752/3/6
f 750/3/6 751/3/6 754/3/6
f 754/3/6 751/3/6 755/3/6
f 752/3/6 753/3/6 756/3/6
f 756/3/6 753/3/6 757/3/6
f 755/3/6 756/3/6 758/3/6
f 758/3/6 756/3/6 759/3/6
f 760/3/6 761/3/6 763/3/6
f 763/3/6 761/3/6 764/3/6
f 762/3/6 763/3/6 767/3/6
f 767/3/6 763/3/6 768/3/6
f 764/3/6 765/3/6 769/3/6
f 769/3/6 765/3/6 770/3/6
f 766/3/6 767/3/6 772/3/6
f 772/3/6 767/3/6 773/3/6
f 770/3/6 771/3/6 776/3/6
f 776/3/6 771/3/6 777/3/6
f 773/3/6 774/3/6 778/3/6
f 778/3/6 774/3/6 779/3/6
f 775/3/6 776/3/6 780/3/6
f 780/3/6 776/3/6 781/3/6
f 779/3/6 780/3/6 782/3/6
f 782/3/6 780/3/6 783/3/6
