# MagicaVoxel @ Ephtracy

# group
o 

# material
mtllib Shield.mtl
usemtl palette

# normals
vn -1 0 0
vn 1 0 0
vn 0 0 1
vn 0 0 -1
vn 0 -1 0
vn 0 1 0

# texcoords
vt 0.537109 0.5
vt 0.974609 0.5

# verts
v -1 1.1 -0.6
v -1 1.1 -0.8
v -1 2.9 -0.6
v -1 2.9 -0.8
v -0.9 1 -0.6
v -0.9 1 -0.7
v -0.9 1.1 -0.6
v -0.9 1.1 -0.7
v -0.9 2.9 -0.6
v -0.9 2.9 -0.7
v -0.9 3.1 -0.6
v -0.9 3.1 -0.7
v -0.8 0.9 -0.5
v -0.8 0.9 -0.7
v -0.8 1 -0.6
v -0.8 1 -0.7
v -0.8 3.1 -0.6
v -0.8 3.1 -0.7
v -0.8 3.2 -0.5
v -0.8 3.2 -0.7
v -0.7 0.8 -0.4
v -0.7 0.8 -0.6
v -0.7 0.9 -0.5
v -0.7 0.9 -0.6
v -0.7 3.2 -0.5
v -0.7 3.3 -0.4
v -0.7 3.3 -0.5
v -0.6 0.7 -0.3
v -0.6 0.7 -0.5
v -0.6 0.8 -0.4
v -0.6 0.8 -0.5
v -0.6 1.9 -0.6
v -0.6 1.9 -0.7
v -0.6 2.1 -0.6
v -0.6 2.1 -0.7
v -0.6 3.3 -0.4
v -0.6 3.3 -0.5
v -0.6 3.4 -0.3
v -0.6 3.4 -0.5
v -0.5 0.6 -0.2
v -0.5 0.6 -0.4
v -0.5 0.7 -0.3
v -0.5 0.7 -0.4
v -0.5 1.9 -0.7
v -0.5 1.9 -0.8
v -0.5 2.1 -0.7
v -0.5 2.1 -0.8
v -0.5 3.4 -0.2
v -0.5 3.4 -0.3
v -0.4 0.5 -0.1
v -0.4 0.5 -0.3
v -0.4 0.6 -0.2
v -0.4 0.6 -0.3
v -0.4 1.9 -0.8
v -0.4 1.9 -0.9
v -0.4 2.1 -0.8
v -0.4 2.1 -0.9
v -0.4 3.4 -0.1
v -0.4 3.4 -0.2
v -0.3 0.4 -0.1
v -0.3 0.4 -0.2
v -0.3 0.5 -0.1
v -0.3 0.5 -0.2
v -0.2 0.3 -0.1
v -0.2 0.3 -0.2
v -0.2 0.4 -0.1
v -0.2 0.4 -0.2
v -0.1 0.2 -0.1
v -0.1 0.2 -0.2
v -0.1 0.3 -0.1
v -0.1 0.3 -0.2
v 0.3 3.3 -0.1
v 0.3 3.3 -0.2
v 0.3 3.4 -0.1
v 0.3 3.4 -0.2
v 0.4 0.5 -0.2
v 0.4 0.5 -0.3
v 0.4 3.4 -0.2
v 0.4 3.4 -0.3
v 0.5 0.6 -0.3
v 0.5 0.6 -0.4
v 0.5 1.9 -0.7
v 0.5 1.9 -0.8
v 0.5 2.1 -0.7
v 0.5 2.1 -0.8
v 0.5 3.4 -0.3
v 0.5 3.4 -0.4
v 0.6 0.7 -0.4
v 0.6 0.7 -0.5
v 0.6 1.9 -0.5
v 0.6 1.9 -0.7
v 0.6 2.1 -0.5
v 0.6 2.1 -0.7
v 0.6 3.4 -0.4
v 0.6 3.4 -0.5
v 0.7 0.8 -0.5
v 0.7 0.8 -0.6
v 0.7 1.9 -0.5
v 0.7 1.9 -0.6
v 0.7 2.1 -0.5
v 0.7 2.1 -0.6
v 0.7 3.3 -0.5
v 0.7 3.3 -0.6
v 0.8 0.9 -0.6
v 0.8 0.9 -0.7
v 0.8 3.2 -0.6
v 0.8 3.2 -0.7
v 1 1.1 -0.7
v 1 1.1 -0.8
v 1 2.9 -0.7
v 1 2.9 -0.8
v -0.9 1.1 -0.7
v -0.9 1.1 -0.8
v -0.9 2.9 -0.7
v -0.9 2.9 -0.8
v -0.7 0.9 -0.6
v -0.7 0.9 -0.7
v -0.7 3.2 -0.6
v -0.7 3.2 -0.7
v -0.6 0.8 -0.5
v -0.6 0.8 -0.6
v -0.6 1.9 -0.5
v -0.6 1.9 -0.6
v -0.6 2.1 -0.5
v -0.6 2.1 -0.6
v -0.6 3.2 -0.5
v -0.6 3.2 -0.6
v -0.5 0.7 -0.4
v -0.5 0.7 -0.5
v -0.5 1.9 -0.5
v -0.5 1.9 -0.7
v -0.5 2.1 -0.5
v -0.5 2.1 -0.7
v -0.5 3.4 -0.4
v -0.5 3.4 -0.5
v -0.4 0.6 -0.3
v -0.4 0.6 -0.4
v -0.4 1.9 -0.7
v -0.4 1.9 -0.8
v -0.4 2.1 -0.7
v -0.4 2.1 -0.8
v -0.4 3.3 -0.2
v -0.4 3.3 -0.3
v -0.4 3.4 -0.2
v -0.4 3.4 -0.4
v -0.3 0.5 -0.2
v -0.3 0.5 -0.3
v -0.3 3.3 -0.2
v -0.3 3.3 -0.3
v -0.2 3.3 -0.1
v -0.2 3.3 -0.2
v -0.2 3.4 -0.1
v -0.2 3.4 -0.2
v 0.2 0.2 -0.1
v 0.2 0.2 -0.2
v 0.2 0.3 -0.1
v 0.2 0.3 -0.2
v 0.3 0.3 -0.1
v 0.3 0.3 -0.2
v 0.3 0.4 -0.1
v 0.3 0.4 -0.2
v 0.4 0.4 -0.1
v 0.4 0.4 -0.2
v 0.4 0.5 -0.1
v 0.4 0.5 -0.2
v 0.5 0.5 -0.1
v 0.5 0.5 -0.3
v 0.5 0.6 -0.2
v 0.5 0.6 -0.3
v 0.5 1.9 -0.8
v 0.5 1.9 -0.9
v 0.5 2.1 -0.8
v 0.5 2.1 -0.9
v 0.5 3.4 -0.1
v 0.5 3.4 -0.2
v 0.6 0.6 -0.2
v 0.6 0.6 -0.4
v 0.6 0.7 -0.3
v 0.6 0.7 -0.4
v 0.6 1.9 -0.7
v 0.6 1.9 -0.8
v 0.6 2.1 -0.7
v 0.6 2.1 -0.8
v 0.6 3.4 -0.2
v 0.6 3.4 -0.3
v 0.7 0.7 -0.3
v 0.7 0.7 -0.5
v 0.7 0.8 -0.4
v 0.7 0.8 -0.5
v 0.7 1.9 -0.6
v 0.7 1.9 -0.7
v 0.7 2.1 -0.6
v 0.7 2.1 -0.7
v 0.7 3.3 -0.4
v 0.7 3.3 -0.5
v 0.7 3.4 -0.3
v 0.7 3.4 -0.5
v 0.8 0.8 -0.4
v 0.8 0.8 -0.6
v 0.8 0.9 -0.5
v 0.8 0.9 -0.6
v 0.8 3.2 -0.5
v 0.8 3.2 -0.6
v 0.8 3.3 -0.4
v 0.8 3.3 -0.6
v 0.9 0.9 -0.5
v 0.9 0.9 -0.7
v 0.9 1 -0.6
v 0.9 1 -0.7
v 0.9 3.1 -0.6
v 0.9 3.1 -0.7
v 0.9 3.2 -0.5
v 0.9 3.2 -0.7
v 1 1 -0.6
v 1 1 -0.7
v 1 1.1 -0.6
v 1 1.1 -0.7
v 1 2.9 -0.6
v 1 2.9 -0.7
v 1 3.1 -0.6
v 1 3.1 -0.7
v 1.1 1.1 -0.6
v 1.1 1.1 -0.8
v 1.1 2.9 -0.6
v 1.1 2.9 -0.8
v -0.4 0.5 -0.1
v -0.4 3.4 -0.1
v -0.3 0.4 -0.1
v -0.3 0.5 -0.1
v -0.2 0.3 -0.1
v -0.2 0.4 -0.1
v -0.2 3.3 -0.1
v -0.2 3.4 -0.1
v -0.1 0.2 -0.1
v -0.1 0.3 -0.1
v 0.2 0.2 -0.1
v 0.2 0.3 -0.1
v 0.3 0.3 -0.1
v 0.3 0.4 -0.1
v 0.3 3.3 -0.1
v 0.3 3.4 -0.1
v 0.4 0.4 -0.1
v 0.4 0.5 -0.1
v 0.5 0.5 -0.1
v 0.5 3.4 -0.1
v -0.5 0.6 -0.2
v -0.5 3.4 -0.2
v -0.4 0.6 -0.2
v -0.4 3.4 -0.2
v 0.5 0.6 -0.2
v 0.5 3.4 -0.2
v 0.6 0.6 -0.2
v 0.6 3.4 -0.2
v -0.6 0.7 -0.3
v -0.6 3.4 -0.3
v -0.5 0.7 -0.3
v -0.5 3.4 -0.3
v 0.6 0.7 -0.3
v 0.6 3.4 -0.3
v 0.7 0.7 -0.3
v 0.7 3.4 -0.3
v -0.7 0.8 -0.4
v -0.7 3.3 -0.4
v -0.6 0.8 -0.4
v -0.6 3.3 -0.4
v 0.7 0.8 -0.4
v 0.7 3.3 -0.4
v 0.8 0.8 -0.4
v 0.8 3.3 -0.4
v -0.8 0.9 -0.5
v -0.8 3.2 -0.5
v -0.7 0.9 -0.5
v -0.7 3.2 -0.5
v 0.8 0.9 -0.5
v 0.8 3.2 -0.5
v 0.9 0.9 -0.5
v 0.9 3.2 -0.5
v -1 1.1 -0.6
v -1 2.9 -0.6
v -0.9 1 -0.6
v -0.9 1.1 -0.6
v -0.9 2.9 -0.6
v -0.9 3.1 -0.6
v -0.8 1 -0.6
v -0.8 3.1 -0.6
v 0.9 1 -0.6
v 0.9 3.1 -0.6
v 1 1 -0.6
v 1 1.1 -0.6
v 1 2.9 -0.6
v 1 3.1 -0.6
v 1.1 1.1 -0.6
v 1.1 2.9 -0.6
v -0.5 1.9 -0.7
v -0.5 2.1 -0.7
v -0.4 1.9 -0.7
v -0.4 2.1 -0.7
v 0.5 1.9 -0.7
v 0.5 2.1 -0.7
v 0.6 1.9 -0.7
v 0.6 2.1 -0.7
v -0.4 1.9 -0.8
v -0.4 2.1 -0.8
v 0.5 1.9 -0.8
v 0.5 2.1 -0.8
v -0.4 3.3 -0.2
v -0.4 3.4 -0.2
v -0.3 0.4 -0.2
v -0.3 0.5 -0.2
v -0.3 3.3 -0.2
v -0.2 0.3 -0.2
v -0.2 0.4 -0.2
v -0.2 3.3 -0.2
v -0.2 3.4 -0.2
v -0.1 0.2 -0.2
v -0.1 0.3 -0.2
v 0.2 0.2 -0.2
v 0.2 0.3 -0.2
v 0.3 0.3 -0.2
v 0.3 0.4 -0.2
v 0.3 3.3 -0.2
v 0.3 3.4 -0.2
v 0.4 0.4 -0.2
v 0.4 0.5 -0.2
v 0.4 3.4 -0.2
v -0.4 0.5 -0.3
v -0.4 0.6 -0.3
v -0.4 3.3 -0.3
v -0.3 0.5 -0.3
v -0.3 3.3 -0.3
v 0.4 0.5 -0.3
v 0.4 3.4 -0.3
v 0.5 0.5 -0.3
v 0.5 0.6 -0.3
v 0.5 3.4 -0.3
v -0.5 0.6 -0.4
v -0.5 0.7 -0.4
v -0.5 3.4 -0.4
v -0.4 0.6 -0.4
v -0.4 3.4 -0.4
v 0.5 0.6 -0.4
v 0.5 3.4 -0.4
v 0.6 0.6 -0.4
v 0.6 0.7 -0.4
v 0.6 3.4 -0.4
v -0.7 3.2 -0.5
v -0.7 3.3 -0.5
v -0.6 0.7 -0.5
v -0.6 0.8 -0.5
v -0.6 1.9 -0.5
v -0.6 2.1 -0.5
v -0.6 3.2 -0.5
v -0.6 3.3 -0.5
v -0.6 3.4 -0.5
v -0.5 0.7 -0.5
v -0.5 1.9 -0.5
v -0.5 2.1 -0.5
v -0.5 3.4 -0.5
v 0.6 0.7 -0.5
v 0.6 1.9 -0.5
v 0.6 2.1 -0.5
v 0.6 3.4 -0.5
v 0.7 0.7 -0.5
v 0.7 0.8 -0.5
v 0.7 1.9 -0.5
v 0.7 2.1 -0.5
v 0.7 3.3 -0.5
v 0.7 3.4 -0.5
v -0.7 0.8 -0.6
v -0.7 0.9 -0.6
v -0.7 3.2 -0.6
v -0.6 0.8 -0.6
v -0.6 1.9 -0.6
v -0.6 2.1 -0.6
v -0.6 3.2 -0.6
v 0.7 0.8 -0.6
v 0.7 1.9 -0.6
v 0.7 2.1 -0.6
v 0.7 3.3 -0.6
v 0.8 0.8 -0.6
v 0.8 0.9 -0.6
v 0.8 3.2 -0.6
v 0.8 3.3 -0.6
v -0.9 1 -0.7
v -0.9 1.1 -0.7
v -0.9 2.9 -0.7
v -0.9 3.1 -0.7
v -0.8 0.9 -0.7
v -0.8 1 -0.7
v -0.8 3.1 -0.7
v -0.8 3.2 -0.7
v -0.7 0.9 -0.7
v -0.7 3.2 -0.7
v -0.6 1.9 -0.7
v -0.6 2.1 -0.7
v -0.5 1.9 -0.7
v -0.5 2.1 -0.7
v 0.6 1.9 -0.7
v 0.6 2.1 -0.7
v 0.7 1.9 -0.7
v 0.7 2.1 -0.7
v 0.8 0.9 -0.7
v 0.8 3.2 -0.7
v 0.9 0.9 -0.7
v 0.9 1 -0.7
v 0.9 3.1 -0.7
v 0.9 3.2 -0.7
v 1 1 -0.7
v 1 1.1 -0.7
v 1 2.9 -0.7
v 1 3.1 -0.7
v -1 1.1 -0.8
v -1 2.9 -0.8
v -0.9 1.1 -0.8
v -0.9 2.9 -0.8
v -0.5 1.9 -0.8
v -0.5 2.1 -0.8
v -0.4 1.9 -0.8
v -0.4 2.1 -0.8
v 0.5 1.9 -0.8
v 0.5 2.1 -0.8
v 0.6 1.9 -0.8
v 0.6 2.1 -0.8
v 1 1.1 -0.8
v 1 2.9 -0.8
v 1.1 1.1 -0.8
v 1.1 2.9 -0.8
v -0.4 1.9 -0.9
v -0.4 2.1 -0.9
v 0.5 1.9 -0.9
v 0.5 2.1 -0.9
v -0.1 0.2 -0.1
v 0.2 0.2 -0.1
v -0.1 0.2 -0.2
v 0.2 0.2 -0.2
v -0.2 0.3 -0.1
v -0.1 0.3 -0.1
v 0.2 0.3 -0.1
v 0.3 0.3 -0.1
v -0.2 0.3 -0.2
v -0.1 0.3 -0.2
v 0.2 0.3 -0.2
v 0.3 0.3 -0.2
v -0.3 0.4 -0.1
v -0.2 0.4 -0.1
v 0.3 0.4 -0.1
v 0.4 0.4 -0.1
v -0.3 0.4 -0.2
v -0.2 0.4 -0.2
v 0.3 0.4 -0.2
v 0.4 0.4 -0.2
v -0.4 0.5 -0.1
v -0.3 0.5 -0.1
v 0.4 0.5 -0.1
v 0.5 0.5 -0.1
v -0.3 0.5 -0.2
v 0.4 0.5 -0.2
v -0.4 0.5 -0.3
v -0.3 0.5 -0.3
v 0.4 0.5 -0.3
v 0.5 0.5 -0.3
v -0.5 0.6 -0.2
v -0.4 0.6 -0.2
v 0.5 0.6 -0.2
v 0.6 0.6 -0.2
v -0.4 0.6 -0.3
v 0.5 0.6 -0.3
v -0.5 0.6 -0.4
v -0.4 0.6 -0.4
v 0.5 0.6 -0.4
v 0.6 0.6 -0.4
v -0.6 0.7 -0.3
v -0.5 0.7 -0.3
v 0.6 0.7 -0.3
v 0.7 0.7 -0.3
v -0.5 0.7 -0.4
v 0.6 0.7 -0.4
v -0.6 0.7 -0.5
v -0.5 0.7 -0.5
v 0.6 0.7 -0.5
v 0.7 0.7 -0.5
v -0.7 0.8 -0.4
v -0.6 0.8 -0.4
v 0.7 0.8 -0.4
v 0.8 0.8 -0.4
v -0.6 0.8 -0.5
v 0.7 0.8 -0.5
v -0.7 0.8 -0.6
v -0.6 0.8 -0.6
v 0.7 0.8 -0.6
v 0.8 0.8 -0.6
v -0.8 0.9 -0.5
v -0.7 0.9 -0.5
v 0.8 0.9 -0.5
v 0.9 0.9 -0.5
v -0.7 0.9 -0.6
v 0.8 0.9 -0.6
v -0.8 0.9 -0.7
v -0.7 0.9 -0.7
v 0.8 0.9 -0.7
v 0.9 0.9 -0.7
v -0.9 1 -0.6
v -0.8 1 -0.6
v 0.9 1 -0.6
v 1 1 -0.6
v -0.9 1 -0.7
v -0.8 1 -0.7
v 0.9 1 -0.7
v 1 1 -0.7
v -1 1.1 -0.6
v -0.9 1.1 -0.6
v 1 1.1 -0.6
v 1.1 1.1 -0.6
v -0.9 1.1 -0.7
v 1 1.1 -0.7
v -1 1.1 -0.8
v -0.9 1.1 -0.8
v 1 1.1 -0.8
v 1.1 1.1 -0.8
v -0.6 1.9 -0.5
v -0.5 1.9 -0.5
v 0.6 1.9 -0.5
v 0.7 1.9 -0.5
v -0.6 1.9 -0.6
v 0.7 1.9 -0.6
v -0.6 1.9 -0.7
v -0.5 1.9 -0.7
v -0.4 1.9 -0.7
v 0.5 1.9 -0.7
v 0.6 1.9 -0.7
v 0.7 1.9 -0.7
v -0.5 1.9 -0.8
v -0.4 1.9 -0.8
v 0.5 1.9 -0.8
v 0.6 1.9 -0.8
v -0.4 1.9 -0.9
v 0.5 1.9 -0.9
v -0.6 2.1 -0.5
v -0.5 2.1 -0.5
v 0.6 2.1 -0.5
v 0.7 2.1 -0.5
v -0.6 2.1 -0.6
v 0.7 2.1 -0.6
v -0.6 2.1 -0.7
v -0.5 2.1 -0.7
v -0.4 2.1 -0.7
v 0.5 2.1 -0.7
v 0.6 2.1 -0.7
v 0.7 2.1 -0.7
v -0.5 2.1 -0.8
v -0.4 2.1 -0.8
v 0.5 2.1 -0.8
v 0.6 2.1 -0.8
v -0.4 2.1 -0.9
v 0.5 2.1 -0.9
v -1 2.9 -0.6
v -0.9 2.9 -0.6
v 1 2.9 -0.6
v 1.1 2.9 -0.6
v -0.9 2.9 -0.7
v 1 2.9 -0.7
v -1 2.9 -0.8
v -0.9 2.9 -0.8
v 1 2.9 -0.8
v 1.1 2.9 -0.8
v -0.9 3.1 -0.6
v -0.8 3.1 -0.6
v 0.9 3.1 -0.6
v 1 3.1 -0.6
v -0.9 3.1 -0.7
v -0.8 3.1 -0.7
v 0.9 3.1 -0.7
v 1 3.1 -0.7
v -0.8 3.2 -0.5
v -0.7 3.2 -0.5
v -0.6 3.2 -0.5
v 0.8 3.2 -0.5
v 0.9 3.2 -0.5
v -0.7 3.2 -0.6
v -0.6 3.2 -0.6
v 0.8 3.2 -0.6
v -0.8 3.2 -0.7
v -0.7 3.2 -0.7
v 0.8 3.2 -0.7
v 0.9 3.2 -0.7
v -0.2 3.3 -0.1
v 0.3 3.3 -0.1
v -0.4 3.3 -0.2
v -0.3 3.3 -0.2
v -0.2 3.3 -0.2
v 0.3 3.3 -0.2
v -0.4 3.3 -0.3
v -0.3 3.3 -0.3
v -0.7 3.3 -0.4
v -0.6 3.3 -0.4
v 0.7 3.3 -0.4
v 0.8 3.3 -0.4
v -0.7 3.3 -0.5
v -0.6 3.3 -0.5
v 0.7 3.3 -0.5
v 0.7 3.3 -0.6
v 0.8 3.3 -0.6
v -0.4 3.4 -0.1
v -0.2 3.4 -0.1
v 0.3 3.4 -0.1
v 0.5 3.4 -0.1
v -0.5 3.4 -0.2
v -0.4 3.4 -0.2
v -0.2 3.4 -0.2
v 0.3 3.4 -0.2
v 0.4 3.4 -0.2
v 0.5 3.4 -0.2
v 0.6 3.4 -0.2
v -0.6 3.4 -0.3
v -0.5 3.4 -0.3
v 0.4 3.4 -0.3
v 0.5 3.4 -0.3
v 0.6 3.4 -0.3
v 0.7 3.4 -0.3
v -0.5 3.4 -0.4
v -0.4 3.4 -0.4
v 0.5 3.4 -0.4
v 0.6 3.4 -0.4
v -0.6 3.4 -0.5
v -0.5 3.4 -0.5
v 0.6 3.4 -0.5
v 0.7 3.4 -0.5

# faces
f 3/2/1 2/2/1 1/2/1
f 4/2/1 2/2/1 3/2/1
f 7/2/1 6/2/1 5/2/1
f 8/2/1 6/2/1 7/2/1
f 11/2/1 10/2/1 9/2/1
f 12/2/1 10/2/1 11/2/1
f 15/2/1 14/2/1 13/2/1
f 16/2/1 14/2/1 15/2/1
f 17/2/1 15/2/1 13/2/1
f 19/2/1 17/2/1 13/2/1
f 19/2/1 18/2/1 17/2/1
f 20/2/1 18/2/1 19/2/1
f 23/2/1 22/2/1 21/2/1
f 24/2/1 22/2/1 23/2/1
f 25/2/1 23/2/1 21/2/1
f 26/2/1 25/2/1 21/2/1
f 27/2/1 25/2/1 26/2/1
f 30/2/1 29/2/1 28/2/1
f 31/2/1 29/2/1 30/2/1
f 34/1/1 33/1/1 32/1/1
f 35/1/1 33/1/1 34/1/1
f 36/2/1 30/2/1 28/2/1
f 38/2/1 36/2/1 28/2/1
f 38/2/1 37/2/1 36/2/1
f 39/2/1 37/2/1 38/2/1
f 42/2/1 41/2/1 40/2/1
f 43/2/1 41/2/1 42/2/1
f 46/1/1 45/1/1 44/1/1
f 47/1/1 45/1/1 46/1/1
f 48/2/1 42/2/1 40/2/1
f 49/2/1 42/2/1 48/2/1
f 52/2/1 51/2/1 50/2/1
f 53/2/1 51/2/1 52/2/1
f 56/1/1 55/1/1 54/1/1
f 57/1/1 55/1/1 56/1/1
f 58/2/1 52/2/1 50/2/1
f 59/2/1 52/2/1 58/2/1
f 62/2/1 61/2/1 60/2/1
f 63/2/1 61/2/1 62/2/1
f 66/2/1 65/2/1 64/2/1
f 67/2/1 65/2/1 66/2/1
f 70/2/1 69/2/1 68/2/1
f 71/2/1 69/2/1 70/2/1
f 74/2/1 73/2/1 72/2/1
f 75/2/1 73/2/1 74/2/1
f 78/2/1 77/2/1 76/2/1
f 79/2/1 77/2/1 78/2/1
f 84/1/1 83/1/1 82/1/1
f 85/1/1 83/1/1 84/1/1
f 86/2/1 81/2/1 80/2/1
f 87/2/1 81/2/1 86/2/1
f 90/2/1 89/2/1 88/2/1
f 92/2/1 90/2/1 88/2/1
f 92/1/1 91/1/1 90/1/1
f 93/1/1 91/1/1 92/1/1
f 94/2/1 92/2/1 88/2/1
f 95/2/1 92/2/1 94/2/1
f 98/2/1 97/2/1 96/2/1
f 99/2/1 97/2/1 98/2/1
f 102/2/1 101/2/1 100/2/1
f 103/2/1 101/2/1 102/2/1
f 106/2/1 105/2/1 104/2/1
f 107/2/1 105/2/1 106/2/1
f 110/2/1 109/2/1 108/2/1
f 111/2/1 109/2/1 110/2/1
f 112/2/2 113/2/2 114/2/2
f 114/2/2 113/2/2 115/2/2
f 116/2/2 117/2/2 118/2/2
f 118/2/2 117/2/2 119/2/2
f 120/2/2 121/2/2 122/2/2
f 122/2/2 121/2/2 123/2/2
f 124/2/2 125/2/2 126/2/2
f 126/2/2 125/2/2 127/2/2
f 128/2/2 129/2/2 130/2/2
f 128/2/2 130/2/2 132/2/2
f 130/1/2 131/1/2 132/1/2
f 132/1/2 131/1/2 133/1/2
f 128/2/2 132/2/2 134/2/2
f 134/2/2 132/2/2 135/2/2
f 138/1/2 139/1/2 140/1/2
f 140/1/2 139/1/2 141/1/2
f 136/2/2 137/2/2 143/2/2
f 142/2/2 143/2/2 144/2/2
f 143/2/2 137/2/2 145/2/2
f 144/2/2 143/2/2 145/2/2
f 146/2/2 147/2/2 148/2/2
f 148/2/2 147/2/2 149/2/2
f 150/2/2 151/2/2 152/2/2
f 152/2/2 151/2/2 153/2/2
f 154/2/2 155/2/2 156/2/2
f 156/2/2 155/2/2 157/2/2
f 158/2/2 159/2/2 160/2/2
f 160/2/2 159/2/2 161/2/2
f 162/2/2 163/2/2 164/2/2
f 164/2/2 163/2/2 165/2/2
f 166/2/2 167/2/2 168/2/2
f 168/2/2 167/2/2 169/2/2
f 170/1/2 171/1/2 172/1/2
f 172/1/2 171/1/2 173/1/2
f 166/2/2 168/2/2 174/2/2
f 174/2/2 168/2/2 175/2/2
f 176/2/2 177/2/2 178/2/2
f 178/2/2 177/2/2 179/2/2
f 180/1/2 181/1/2 182/1/2
f 182/1/2 181/1/2 183/1/2
f 176/2/2 178/2/2 184/2/2
f 184/2/2 178/2/2 185/2/2
f 186/2/2 187/2/2 188/2/2
f 188/2/2 187/2/2 189/2/2
f 190/1/2 191/1/2 192/1/2
f 192/1/2 191/1/2 193/1/2
f 186/2/2 188/2/2 194/2/2
f 186/2/2 194/2/2 196/2/2
f 194/2/2 195/2/2 196/2/2
f 196/2/2 195/2/2 197/2/2
f 198/2/2 199/2/2 200/2/2
f 200/2/2 199/2/2 201/2/2
f 198/2/2 200/2/2 202/2/2
f 198/2/2 202/2/2 204/2/2
f 202/2/2 203/2/2 204/2/2
f 204/2/2 203/2/2 205/2/2
f 206/2/2 207/2/2 208/2/2
f 208/2/2 207/2/2 209/2/2
f 206/2/2 208/2/2 210/2/2
f 206/2/2 210/2/2 212/2/2
f 210/2/2 211/2/2 212/2/2
f 212/2/2 211/2/2 213/2/2
f 214/2/2 215/2/2 216/2/2
f 216/2/2 215/2/2 217/2/2
f 218/2/2 219/2/2 220/2/2
f 220/2/2 219/2/2 221/2/2
f 222/2/2 223/2/2 224/2/2
f 224/2/2 223/2/2 225/2/2
f 229/2/3 227/2/3 226/2/3
f 231/2/3 229/2/3 228/2/3
f 232/2/3 227/2/3 229/2/3
f 232/2/3 229/2/3 231/2/3
f 233/2/3 227/2/3 232/2/3
f 235/2/3 231/2/3 230/2/3
f 235/2/3 232/2/3 231/2/3
f 236/2/3 235/2/3 234/2/3
f 237/2/3 232/2/3 235/2/3
f 237/2/3 235/2/3 236/2/3
f 238/2/3 232/2/3 237/2/3
f 239/2/3 232/2/3 238/2/3
f 240/2/3 232/2/3 239/2/3
f 242/2/3 241/2/3 240/2/3
f 242/2/3 240/2/3 239/2/3
f 243/2/3 241/2/3 242/2/3
f 244/2/3 241/2/3 243/2/3
f 245/2/3 241/2/3 244/2/3
f 248/2/3 247/2/3 246/2/3
f 249/2/3 247/2/3 248/2/3
f 252/2/3 251/2/3 250/2/3
f 253/2/3 251/2/3 252/2/3
f 256/2/3 255/2/3 254/2/3
f 257/2/3 255/2/3 256/2/3
f 260/2/3 259/2/3 258/2/3
f 261/2/3 259/2/3 260/2/3
f 264/2/3 263/2/3 262/2/3
f 265/2/3 263/2/3 264/2/3
f 268/2/3 267/2/3 266/2/3
f 269/2/3 267/2/3 268/2/3
f 272/2/3 271/2/3 270/2/3
f 273/2/3 271/2/3 272/2/3
f 276/2/3 275/2/3 274/2/3
f 277/2/3 275/2/3 276/2/3
f 281/2/3 279/2/3 278/2/3
f 282/2/3 279/2/3 281/2/3
f 284/2/3 281/2/3 280/2/3
f 284/2/3 283/2/3 282/2/3
f 284/2/3 282/2/3 281/2/3
f 285/2/3 283/2/3 284/2/3
f 288/2/3 287/2/3 286/2/3
f 289/2/3 287/2/3 288/2/3
f 290/2/3 287/2/3 289/2/3
f 291/2/3 287/2/3 290/2/3
f 292/2/3 290/2/3 289/2/3
f 293/2/3 290/2/3 292/2/3
f 296/1/3 295/1/3 294/1/3
f 297/1/3 295/1/3 296/1/3
f 300/1/3 299/1/3 298/1/3
f 301/1/3 299/1/3 300/1/3
f 304/1/3 303/1/3 302/1/3
f 305/1/3 303/1/3 304/1/3
f 306/2/4 307/2/4 310/2/4
f 308/2/4 309/2/4 312/2/4
f 309/2/4 310/2/4 312/2/4
f 310/2/4 307/2/4 313/2/4
f 312/2/4 310/2/4 313/2/4
f 313/2/4 307/2/4 314/2/4
f 311/2/4 312/2/4 316/2/4
f 312/2/4 313/2/4 316/2/4
f 315/2/4 316/2/4 317/2/4
f 316/2/4 313/2/4 318/2/4
f 317/2/4 316/2/4 318/2/4
f 318/2/4 313/2/4 319/2/4
f 319/2/4 313/2/4 320/2/4
f 320/2/4 313/2/4 321/2/4
f 321/2/4 322/2/4 323/2/4
f 320/2/4 321/2/4 323/2/4
f 323/2/4 322/2/4 324/2/4
f 324/2/4 322/2/4 325/2/4
f 326/2/4 327/2/4 329/2/4
f 327/2/4 328/2/4 329/2/4
f 329/2/4 328/2/4 330/2/4
f 331/2/4 332/2/4 333/2/4
f 333/2/4 332/2/4 334/2/4
f 334/2/4 332/2/4 335/2/4
f 336/2/4 337/2/4 339/2/4
f 337/2/4 338/2/4 339/2/4
f 339/2/4 338/2/4 340/2/4
f 341/2/4 342/2/4 343/2/4
f 343/2/4 342/2/4 344/2/4
f 344/2/4 342/2/4 345/2/4
f 346/2/4 347/2/4 352/2/4
f 352/2/4 347/2/4 353/2/4
f 349/2/4 350/2/4 355/2/4
f 348/2/4 349/2/4 355/2/4
f 355/2/4 350/2/4 356/2/4
f 353/2/4 354/2/4 357/2/4
f 352/2/4 353/2/4 357/2/4
f 351/2/4 352/2/4 357/2/4
f 357/2/4 354/2/4 358/2/4
f 359/2/4 360/2/4 363/2/4
f 363/2/4 360/2/4 364/2/4
f 364/2/4 360/2/4 365/2/4
f 361/2/4 362/2/4 366/2/4
f 366/2/4 362/2/4 367/2/4
f 367/2/4 362/2/4 368/2/4
f 369/2/4 370/2/4 372/2/4
f 370/2/4 371/2/4 372/2/4
f 372/2/4 371/2/4 373/2/4
f 373/2/4 371/2/4 374/2/4
f 374/2/4 371/2/4 375/2/4
f 377/2/4 378/2/4 380/2/4
f 378/2/4 379/2/4 380/2/4
f 376/2/4 377/2/4 380/2/4
f 380/2/4 379/2/4 381/2/4
f 381/2/4 379/2/4 382/2/4
f 382/2/4 379/2/4 383/2/4
f 384/2/4 385/2/4 389/2/4
f 386/2/4 387/2/4 389/2/4
f 385/2/4 386/2/4 389/2/4
f 389/2/4 387/2/4 390/2/4
f 388/2/4 389/2/4 392/2/4
f 390/2/4 391/2/4 392/2/4
f 389/2/4 390/2/4 392/2/4
f 392/2/4 391/2/4 393/2/4
f 394/1/4 395/1/4 396/1/4
f 396/1/4 395/1/4 397/1/4
f 398/1/4 399/1/4 400/1/4
f 400/1/4 399/1/4 401/1/4
f 402/2/4 403/2/4 404/2/4
f 404/2/4 403/2/4 405/2/4
f 405/2/4 403/2/4 406/2/4
f 406/2/4 403/2/4 407/2/4
f 405/2/4 406/2/4 408/2/4
f 408/2/4 406/2/4 409/2/4
f 409/2/4 406/2/4 410/2/4
f 410/2/4 406/2/4 411/2/4
f 412/2/4 413/2/4 414/2/4
f 414/2/4 413/2/4 415/2/4
f 416/1/4 417/1/4 418/1/4
f 418/1/4 417/1/4 419/1/4
f 420/1/4 421/1/4 422/1/4
f 422/1/4 421/1/4 423/1/4
f 424/2/4 425/2/4 426/2/4
f 426/2/4 425/2/4 427/2/4
f 428/1/4 429/1/4 430/1/4
f 430/1/4 429/1/4 431/1/4
f 434/2/5 433/2/5 432/2/5
f 435/2/5 433/2/5 434/2/5
f 440/2/5 437/2/5 436/2/5
f 441/2/5 437/2/5 440/2/5
f 442/2/5 439/2/5 438/2/5
f 443/2/5 439/2/5 442/2/5
f 448/2/5 445/2/5 444/2/5
f 449/2/5 445/2/5 448/2/5
f 450/2/5 447/2/5 446/2/5
f 451/2/5 447/2/5 450/2/5
f 456/2/5 453/2/5 452/2/5
f 457/2/5 455/2/5 454/2/5
f 458/2/5 456/2/5 452/2/5
f 459/2/5 456/2/5 458/2/5
f 460/2/5 455/2/5 457/2/5
f 461/2/5 455/2/5 460/2/5
f 466/2/5 463/2/5 462/2/5
f 467/2/5 465/2/5 464/2/5
f 468/2/5 466/2/5 462/2/5
f 469/2/5 466/2/5 468/2/5
f 470/2/5 465/2/5 467/2/5
f 471/2/5 465/2/5 470/2/5
f 476/2/5 473/2/5 472/2/5
f 477/2/5 475/2/5 474/2/5
f 478/2/5 476/2/5 472/2/5
f 479/2/5 476/2/5 478/2/5
f 480/2/5 475/2/5 477/2/5
f 481/2/5 475/2/5 480/2/5
f 486/2/5 483/2/5 482/2/5
f 487/2/5 485/2/5 484/2/5
f 488/2/5 486/2/5 482/2/5
f 489/2/5 486/2/5 488/2/5
f 490/2/5 485/2/5 487/2/5
f 491/2/5 485/2/5 490/2/5
f 496/2/5 493/2/5 492/2/5
f 497/2/5 495/2/5 494/2/5
f 498/2/5 496/2/5 492/2/5
f 499/2/5 496/2/5 498/2/5
f 500/2/5 495/2/5 497/2/5
f 501/2/5 495/2/5 500/2/5
f 506/2/5 503/2/5 502/2/5
f 507/2/5 503/2/5 506/2/5
f 508/2/5 505/2/5 504/2/5
f 509/2/5 505/2/5 508/2/5
f 514/2/5 511/2/5 510/2/5
f 515/2/5 513/2/5 512/2/5
f 516/2/5 514/2/5 510/2/5
f 517/2/5 514/2/5 516/2/5
f 518/2/5 513/2/5 515/2/5
f 519/2/5 513/2/5 518/2/5
f 524/1/5 521/1/5 520/1/5
f 525/1/5 523/1/5 522/1/5
f 526/1/5 521/1/5 524/1/5
f 527/1/5 521/1/5 526/1/5
f 530/1/5 525/1/5 522/1/5
f 531/1/5 525/1/5 530/1/5
f 532/1/5 528/1/5 527/1/5
f 533/1/5 528/1/5 532/1/5
f 534/1/5 530/1/5 529/1/5
f 535/1/5 530/1/5 534/1/5
f 536/1/5 534/1/5 533/1/5
f 537/1/5 534/1/5 536/1/5
f 538/1/6 539/1/6 542/1/6
f 540/1/6 541/1/6 543/1/6
f 542/1/6 539/1/6 544/1/6
f 544/1/6 539/1/6 545/1/6
f 540/1/6 543/1/6 548/1/6
f 548/1/6 543/1/6 549/1/6
f 545/1/6 546/1/6 550/1/6
f 550/1/6 546/1/6 551/1/6
f 547/1/6 548/1/6 552/1/6
f 552/1/6 548/1/6 553/1/6
f 551/1/6 552/1/6 554/1/6
f 554/1/6 552/1/6 555/1/6
f 556/2/6 557/2/6 560/2/6
f 558/2/6 559/2/6 561/2/6
f 556/2/6 560/2/6 562/2/6
f 562/2/6 560/2/6 563/2/6
f 561/2/6 559/2/6 564/2/6
f 564/2/6 559/2/6 565/2/6
f 566/2/6 567/2/6 570/2/6
f 570/2/6 567/2/6 571/2/6
f 568/2/6 569/2/6 572/2/6
f 572/2/6 569/2/6 573/2/6
f 574/2/6 575/2/6 579/2/6
f 575/2/6 576/2/6 579/2/6
f 579/2/6 576/2/6 580/2/6
f 577/2/6 578/2/6 581/2/6
f 574/2/6 579/2/6 582/2/6
f 582/2/6 579/2/6 583/2/6
f 581/2/6 578/2/6 584/2/6
f 584/2/6 578/2/6 585/2/6
f 586/2/6 587/2/6 590/2/6
f 590/2/6 587/2/6 591/2/6
f 588/2/6 589/2/6 592/2/6
f 592/2/6 589/2/6 593/2/6
f 594/2/6 595/2/6 598/2/6
f 598/2/6 595/2/6 599/2/6
f 596/2/6 597/2/6 600/2/6
f 600/2/6 597/2/6 601/2/6
f 601/2/6 597/2/6 602/2/6
f 603/2/6 604/2/6 608/2/6
f 608/2/6 604/2/6 609/2/6
f 605/2/6 606/2/6 610/2/6
f 610/2/6 606/2/6 611/2/6
f 611/2/6 606/2/6 612/2/6
f 607/2/6 608/2/6 615/2/6
f 612/2/6 613/2/6 616/2/6
f 611/2/6 612/2/6 616/2/6
f 616/2/6 613/2/6 617/2/6
f 617/2/6 613/2/6 618/2/6
f 614/2/6 615/2/6 620/2/6
f 615/2/6 608/2/6 620/2/6
f 620/2/6 608/2/6 621/2/6
f 618/2/6 619/2/6 622/2/6
f 617/2/6 618/2/6 622/2/6
f 622/2/6 619/2/6 623/2/6
f 614/2/6 620/2/6 624/2/6
f 624/2/6 620/2/6 625/2/6
f 623/2/6 619/2/6 626/2/6
f 626/2/6 619/2/6 627/2/6
