# MagicaVoxel @ Ephtracy

# group
o 

# material
mtllib Fire Book.mtl
usemtl palette

# normals
vn -1 0 0
vn 1 0 0
vn 0 0 1
vn 0 0 -1
vn 0 -1 0
vn 0 1 0

# texcoords
vt 0.0878906 0.5
vt 0.0917969 0.5
vt 0.205078 0.5
vt 0.845703 0.5
vt 0.974609 0.5
vt 0.994141 0.5

# verts
v 0.1 0.3 0.4
v 0.1 0.3 0.3
v 0.1 0.3 0
v 0.1 0.3 -0.1
v 0.1 2.1 0.4
v 0.1 2.1 0.3
v 0.1 2.1 0
v 0.1 2.1 -0.1
v 0.2 0.4 0.3
v 0.2 0.4 0
v 0.2 2 0.3
v 0.2 2 0
v 1.4 0.3 0.3
v 1.4 0.3 0
v 1.4 0.4 0.3
v 1.4 0.4 0
v 1.4 2 0.3
v 1.4 2 0
v 1.4 2.1 0.3
v 1.4 2.1 0
v 1.5 0.3 0.4
v 1.5 0.3 -0.1
v 1.5 2.1 0.4
v 1.5 2.1 -0.1
v 0.1 0.3 0.4
v 0.1 2.1 0.4
v 0.2 0.4 0.4
v 0.2 0.7 0.4
v 0.2 0.9 0.4
v 0.2 2 0.4
v 0.3 0.5 0.4
v 0.3 0.7 0.4
v 0.3 0.8 0.4
v 0.3 0.9 0.4
v 0.3 1.5 0.4
v 0.4 0.7 0.4
v 0.4 0.8 0.4
v 0.4 1.1 0.4
v 0.4 1.2 0.4
v 0.4 1.5 0.4
v 0.4 1.8 0.4
v 0.5 0.4 0.4
v 0.5 0.5 0.4
v 0.5 1 0.4
v 0.5 1.1 0.4
v 0.5 1.2 0.4
v 0.5 1.3 0.4
v 0.5 1.5 0.4
v 0.5 1.7 0.4
v 0.5 1.8 0.4
v 0.5 1.9 0.4
v 0.6 0.8 0.4
v 0.6 1 0.4
v 0.6 1.3 0.4
v 0.6 1.4 0.4
v 0.6 1.7 0.4
v 0.6 1.9 0.4
v 0.7 0.8 0.4
v 0.7 1 0.4
v 0.7 1.3 0.4
v 0.7 1.4 0.4
v 0.7 1.7 0.4
v 0.7 2 0.4
v 0.9 0.8 0.4
v 0.9 1 0.4
v 0.9 1.3 0.4
v 0.9 1.4 0.4
v 0.9 1.7 0.4
v 0.9 2 0.4
v 1 0.8 0.4
v 1 1 0.4
v 1 1.3 0.4
v 1 1.4 0.4
v 1 1.7 0.4
v 1 1.9 0.4
v 1.1 1 0.4
v 1.1 1.1 0.4
v 1.1 1.2 0.4
v 1.1 1.3 0.4
v 1.1 1.5 0.4
v 1.1 1.7 0.4
v 1.1 1.8 0.4
v 1.1 1.9 0.4
v 1.2 0.4 0.4
v 1.2 0.5 0.4
v 1.2 0.7 0.4
v 1.2 0.8 0.4
v 1.2 1.1 0.4
v 1.2 1.2 0.4
v 1.2 1.5 0.4
v 1.2 1.8 0.4
v 1.3 0.8 0.4
v 1.3 0.9 0.4
v 1.3 1.5 0.4
v 1.4 0.4 0.4
v 1.4 0.5 0.4
v 1.4 0.9 0.4
v 1.4 2 0.4
v 1.5 0.3 0.4
v 1.5 2.1 0.4
v 0.1 0.3 0
v 0.1 2.1 0
v 0.2 0.4 0
v 0.2 2 0
v 1.4 0.3 0
v 1.4 0.4 0
v 1.4 2 0
v 1.4 2.1 0
v 0.1 0.3 0.3
v 0.1 2.1 0.3
v 0.2 0.4 0.3
v 0.2 2 0.3
v 1.4 0.3 0.3
v 1.4 0.4 0.3
v 1.4 2 0.3
v 1.4 2.1 0.3
v 0.1 0.3 -0.1
v 0.1 2.1 -0.1
v 0.2 0.4 -0.1
v 0.2 2 -0.1
v 1.4 0.4 -0.1
v 1.4 2 -0.1
v 1.5 0.3 -0.1
v 1.5 2.1 -0.1
v 0.1 0.3 0.4
v 1.5 0.3 0.4
v 0.1 0.3 0.3
v 1.4 0.3 0.3
v 0.1 0.3 0
v 1.4 0.3 0
v 0.1 0.3 -0.1
v 1.5 0.3 -0.1
v 0.2 0.4 0.3
v 1.4 0.4 0.3
v 0.2 0.4 0
v 1.4 0.4 0
v 0.2 2 0.3
v 1.4 2 0.3
v 0.2 2 0
v 1.4 2 0
v 0.1 2.1 0.4
v 1.5 2.1 0.4
v 0.1 2.1 0.3
v 1.4 2.1 0.3
v 0.1 2.1 0
v 1.4 2.1 0
v 0.1 2.1 -0.1
v 1.5 2.1 -0.1

# faces
f 5/6/1 2/6/1 1/6/1
f 6/6/1 2/6/1 5/6/1
f 7/6/1 4/6/1 3/6/1
f 8/6/1 4/6/1 7/6/1
f 11/5/1 10/5/1 9/5/1
f 12/5/1 10/5/1 11/5/1
f 15/6/1 14/6/1 13/6/1
f 16/6/1 14/6/1 15/6/1
f 19/6/1 18/6/1 17/6/1
f 20/6/1 18/6/1 19/6/1
f 21/6/2 22/6/2 23/6/2
f 23/6/2 22/6/2 24/6/2
f 27/6/3 26/6/3 25/6/3
f 28/6/3 26/6/3 27/6/3
f 29/6/3 26/6/3 28/6/3
f 30/6/3 26/6/3 29/6/3
f 31/4/3 28/4/3 27/4/3
f 32/3/3 29/3/3 28/3/3
f 32/4/3 28/4/3 31/4/3
f 33/3/3 29/3/3 32/3/3
f 34/4/3 30/4/3 29/4/3
f 34/3/3 29/3/3 33/3/3
f 35/4/3 30/4/3 34/4/3
f 36/3/3 33/3/3 32/3/3
f 36/3/3 32/3/3 31/3/3
f 37/1/3 35/1/3 34/1/3
f 37/3/3 33/3/3 36/3/3
f 37/1/3 34/1/3 33/1/3
f 38/1/3 35/1/3 37/1/3
f 39/1/3 35/1/3 38/1/3
f 40/4/3 30/4/3 35/4/3
f 40/1/3 35/1/3 39/1/3
f 41/4/3 30/4/3 40/4/3
f 42/6/3 27/6/3 25/6/3
f 42/4/3 31/4/3 27/4/3
f 43/3/3 36/3/3 31/3/3
f 43/4/3 31/4/3 42/4/3
f 44/2/3 38/2/3 37/2/3
f 45/1/3 39/1/3 38/1/3
f 45/2/3 38/2/3 44/2/3
f 46/2/3 40/2/3 39/2/3
f 46/1/3 39/1/3 45/1/3
f 47/2/3 40/2/3 46/2/3
f 48/1/3 41/1/3 40/1/3
f 48/2/3 40/2/3 47/2/3
f 49/1/3 41/1/3 48/1/3
f 50/4/3 30/4/3 41/4/3
f 50/1/3 41/1/3 49/1/3
f 51/4/3 30/4/3 50/4/3
f 52/2/3 44/2/3 37/2/3
f 52/1/3 37/1/3 36/1/3
f 53/1/3 47/1/3 46/1/3
f 53/2/3 44/2/3 52/2/3
f 53/1/3 45/1/3 44/1/3
f 53/1/3 46/1/3 45/1/3
f 54/2/3 49/2/3 48/2/3
f 54/1/3 47/1/3 53/1/3
f 54/2/3 48/2/3 47/2/3
f 55/2/3 49/2/3 54/2/3
f 56/1/3 51/1/3 50/1/3
f 56/2/3 49/2/3 55/2/3
f 56/1/3 50/1/3 49/1/3
f 57/4/3 30/4/3 51/4/3
f 57/1/3 51/1/3 56/1/3
f 58/1/3 53/1/3 52/1/3
f 58/1/3 52/1/3 36/1/3
f 59/2/3 55/2/3 54/2/3
f 59/1/3 53/1/3 58/1/3
f 59/2/3 54/2/3 53/2/3
f 60/2/3 55/2/3 59/2/3
f 61/1/3 56/1/3 55/1/3
f 61/2/3 55/2/3 60/2/3
f 62/4/3 57/4/3 56/4/3
f 62/1/3 56/1/3 61/1/3
f 63/4/3 30/4/3 57/4/3
f 63/4/3 57/4/3 62/4/3
f 63/6/3 26/6/3 30/6/3
f 64/2/3 59/2/3 58/2/3
f 64/1/3 58/1/3 36/1/3
f 65/1/3 60/1/3 59/1/3
f 65/2/3 59/2/3 64/2/3
f 66/2/3 62/2/3 61/2/3
f 66/1/3 60/1/3 65/1/3
f 66/2/3 61/2/3 60/2/3
f 67/2/3 62/2/3 66/2/3
f 68/1/3 63/1/3 62/1/3
f 68/2/3 62/2/3 67/2/3
f 69/6/3 26/6/3 63/6/3
f 69/1/3 63/1/3 68/1/3
f 70/1/3 65/1/3 64/1/3
f 70/1/3 64/1/3 36/1/3
f 71/2/3 67/2/3 66/2/3
f 71/1/3 65/1/3 70/1/3
f 71/2/3 66/2/3 65/2/3
f 72/2/3 67/2/3 71/2/3
f 73/1/3 68/1/3 67/1/3
f 73/2/3 67/2/3 72/2/3
f 74/4/3 69/4/3 68/4/3
f 74/1/3 68/1/3 73/1/3
f 75/4/3 69/4/3 74/4/3
f 76/1/3 72/1/3 71/1/3
f 76/2/3 71/2/3 70/2/3
f 77/1/3 72/1/3 76/1/3
f 78/1/3 72/1/3 77/1/3
f 79/2/3 73/2/3 72/2/3
f 79/1/3 72/1/3 78/1/3
f 79/2/3 74/2/3 73/2/3
f 80/2/3 74/2/3 79/2/3
f 81/1/3 75/1/3 74/1/3
f 81/2/3 74/2/3 80/2/3
f 82/1/3 75/1/3 81/1/3
f 83/4/3 69/4/3 75/4/3
f 83/1/3 75/1/3 82/1/3
f 84/3/3 43/3/3 42/3/3
f 84/6/3 42/6/3 25/6/3
f 85/3/3 36/3/3 43/3/3
f 85/3/3 43/3/3 84/3/3
f 86/1/3 70/1/3 36/1/3
f 86/3/3 36/3/3 85/3/3
f 87/2/3 77/2/3 76/2/3
f 87/1/3 70/1/3 86/1/3
f 87/2/3 76/2/3 70/2/3
f 88/1/3 78/1/3 77/1/3
f 88/2/3 77/2/3 87/2/3
f 89/2/3 80/2/3 79/2/3
f 89/1/3 78/1/3 88/1/3
f 89/2/3 79/2/3 78/2/3
f 90/1/3 82/1/3 81/1/3
f 90/2/3 80/2/3 89/2/3
f 90/1/3 81/1/3 80/1/3
f 91/4/3 83/4/3 82/4/3
f 91/1/3 82/1/3 90/1/3
f 92/1/3 89/1/3 88/1/3
f 92/3/3 87/3/3 86/3/3
f 92/1/3 90/1/3 89/1/3
f 92/3/3 86/3/3 85/3/3
f 92/1/3 88/1/3 87/1/3
f 93/1/3 90/1/3 92/1/3
f 94/4/3 91/4/3 90/4/3
f 94/1/3 90/1/3 93/1/3
f 95/6/3 84/6/3 25/6/3
f 95/4/3 85/4/3 84/4/3
f 96/3/3 93/3/3 92/3/3
f 96/4/3 85/4/3 95/4/3
f 96/3/3 92/3/3 85/3/3
f 97/4/3 94/4/3 93/4/3
f 97/3/3 93/3/3 96/3/3
f 98/6/3 26/6/3 69/6/3
f 98/4/3 94/4/3 97/4/3
f 98/4/3 83/4/3 91/4/3
f 98/4/3 69/4/3 83/4/3
f 98/4/3 91/4/3 94/4/3
f 99/6/3 97/6/3 96/6/3
f 99/6/3 96/6/3 95/6/3
f 99/6/3 98/6/3 97/6/3
f 99/6/3 95/6/3 25/6/3
f 100/6/3 26/6/3 98/6/3
f 100/6/3 98/6/3 99/6/3
f 103/6/3 102/6/3 101/6/3
f 104/6/3 102/6/3 103/6/3
f 105/6/3 103/6/3 101/6/3
f 106/6/3 103/6/3 105/6/3
f 107/6/3 102/6/3 104/6/3
f 108/6/3 102/6/3 107/6/3
f 109/6/4 110/6/4 111/6/4
f 111/6/4 110/6/4 112/6/4
f 109/6/4 111/6/4 113/6/4
f 113/6/4 111/6/4 114/6/4
f 112/6/4 110/6/4 115/6/4
f 115/6/4 110/6/4 116/6/4
f 117/6/4 118/6/4 119/6/4
f 119/6/4 118/6/4 120/6/4
f 117/6/4 119/6/4 121/6/4
f 119/3/4 120/3/4 121/3/4
f 120/6/4 118/6/4 122/6/4
f 121/3/4 120/3/4 122/3/4
f 117/6/4 121/6/4 123/6/4
f 121/6/4 122/6/4 123/6/4
f 122/6/4 118/6/4 124/6/4
f 123/6/4 122/6/4 124/6/4
f 127/6/5 126/6/5 125/6/5
f 128/6/5 126/6/5 127/6/5
f 130/6/5 126/6/5 128/6/5
f 131/6/5 130/6/5 129/6/5
f 132/6/5 126/6/5 130/6/5
f 132/6/5 130/6/5 131/6/5
f 135/5/5 134/5/5 133/5/5
f 136/5/5 134/5/5 135/5/5
f 137/5/6 138/5/6 139/5/6
f 139/5/6 138/5/6 140/5/6
f 141/6/6 142/6/6 143/6/6
f 143/6/6 142/6/6 144/6/6
f 144/6/6 142/6/6 146/6/6
f 145/6/6 146/6/6 147/6/6
f 146/6/6 142/6/6 148/6/6
f 147/6/6 146/6/6 148/6/6
